<?xml version="1.0" encoding="UTF-8"?> <svg xmlns="http://www.w3.org/2000/svg" id="Layer_1" data-name="Layer 1" viewBox="0 0 384 384"><defs><style>.cls-1{fill:#fff}</style></defs><path class="cls-1" d="M262.847 217.432c.91-2.576-1.102-4.958-4.6-5.514-3.487-.55-12.49-.737-14.88.733-2.391 1.476-14.499 11.239-23.333 19.294-10.29 9.372-9.006 13.051-9.006 13.051s.368 2.385 5.514-1.476c5.146-3.857 27.194-23.332 33.628-24.434 6.434-1.102 11.761.925 12.677-1.654m-9.418-32.75c-3.816.96-7.304-3.998-7.304-3.998-.92-2.573.067-4.854 3.305-6.065 3.001-1.12 5.551-.829 6.066 2.755.328 2.226.487 6.67-2.067 7.308m6.66-5.655l-.368-1.1c-.06-1.28 1.252-1.9 1.981-2.796.773-.961 1.252-2.46 2.208-3.27 2.217-1.89 4.194 1.115 5.146 3.16 2.076 4.472-7.213 10.87-8.966 4.006m33.252 56.96c2.577 7.17.733 22.6-.92 24.258-1.648 1.653-3.852-8.456-8.629-13.233-4.781-4.777-6.99-4.043-6.99-4.043s-3.3 3.862-5.323 6.065c-2.021 2.204-5.697 4.96-6.617 5.146-.918.187.366-5.879 0-11.393-.368-5.51.734-7.536-2.753-7.536-3.497 0-16.908 5.879-32.714 17.64-15.79 11.762-28.29 26.46-31.592 31.606-3.315 5.146-3.132 6.43-3.132 6.43v17.458s.554 4.959-4.221 6.066c-4.777 1.102-5.146-6.435-5.146-6.435s.915-17.64.186-21.496c-.737-3.863-7.536-16.174-19.297-29.767-11.762-13.597-22.39-24.435-35.642-22.605-21.314 2.943-19.483 27.75-22.603 27.75-3.128 0-7.809-16.448-1.834-28.851 4.771-9.922 13.41-16.17 14.698-14.33 1.289 1.84-1.834 3.675.182 5.332 2.021 1.653 8.087-1.84 12.495-.738 4.407 1.102 3.128 2.39 8.269 1.653 5.146-.738 7.536-2.572 11.211-.738 3.67 1.84 17.823 14.522 19.285 15.255 1.475.734 1.293 1.102 2.213-.552.915-1.652-4.969-13.045-13.602-24.624-8.633-11.576-12.314-15.983-15.068-15.983s-13.774 2.76-21.68 6.985c-7.895 4.225-11.939 9.549-14.33 9.183-2.385-.363.183-8.819 3.853-15.431 3.684-6.617 8.638-9.002 16.361-10.473 7.718-1.475 18.738-6.616 22.417-6.252 3.67.37 11.389 9.376 18.925 19.116 7.53 9.735 9.79 16.634 13.045 17.267 2.733.527 2.606-5.37 2.606-5.37s-1.685-74.244-1.03-94.694c1.47-45.75 21.944-46.195 28.924-41.966 6.981 4.22 23.332 24.803 28.847 30.318 5.51 5.51 11.392 11.201 10.66 13.96-.743 2.756-3.306 6.249-8.092 4.777-4.777-1.47-8.633-4.777-11.944.552-3.301 5.327-7.527 12.309-5.879 15.067 1.654 2.756 6.43 2.386 8.824-1.284 2.392-3.68-.186-7.718 5.51-7.905a54.73 54.73 0 0012.313-1.653c2.933-.738 4.59-.915 4.778-4.225.186-3.306-1.102-3.306-.37-11.024.733-7.714.183-14.148 4.959-14.148 4.778 0 4.23 4.221 4.778 8.815.55 4.599-.188 7.355 2.759 8.092 2.94.728 6.798-3.865 9.735-2.027 2.946 1.841 2.946 12.313 2.946 17.459a37.179 37.179 0 01-1.762 12.509c-1.622 4.502-5.678 7.135-9.075 10.308-2.04 1.913-3.611 4.568-5.523 6.735-4.773 5.392-10.606 4.235-16.985 3.015-3.233-.624-6.403-1.074-9.34.834-2.244 1.46-3.693 4.192-6.02 5.545-1.908 1.116-5.77 2.987-8.073 2.176-2.75-.97-3.702-5-6.252-6.538-1.79-1.074-5.337-1.344-6.11-3.297-.41-1.034.381-2.805-.12-3.73-.527-.978-2.285-.805-3.15-1.416-2.154-1.515-.642-4.325-.164-6.488a36.169 36.169 0 001.138-6.197c.086-2.013-.72-3.201-1.958-4.846-1.562-2.085-3.442-3.934-4.85-6.138-.692-1.088-2.764-4.094-2.153-5.533 1.02-2.417 5.906-.245 7.618.256 1.625.482 4.5 1.215 6.18.61a3.184 3.184 0 001.365-4.417s-1.47-24.443-3.67-32.708c-2.204-8.269-3.493-12.495-9.193-11.58-5.697.92-11.944 11.58-13.406 27.563-1.471 15.987 1.28 118.333 1.28 118.333s-.183 2.754 2.025 3.306c2.204.55 2.746-1.47 6.43-4.043 3.67-2.57 29.216-27.558 29.216-27.558s1.466-2.942 6.06-3.31c4.595-.365 29.584-.916 31.966-.552 2.395.368 3.866 4.226 5.15 7.167a28.86 28.86 0 012.022 8.269c.37 2.755 1.29 7.9 2.942 9.554 1.648 1.657 10.468 7.531 13.041 14.698M138.066 132.75l-1.188 1.346a3.29 3.29 0 00-.209 3.902 9.58 9.58 0 011.603 5.015c0 5.277-7.182 8.646-7.182 8.646a2.687 2.687 0 00-1.698 3.47c.3 1.33-.492 2.172-1.734 1.717-2.073-.756-3.07.133-4.003 1.143 0 0-3.142 3.402-6.885 3.402-3.89 0-7.13-3.712-7.13-3.712a4.233 4.233 0 00-4.045-1.162l-1.002.301c-1.32.397-2.14-.373-1.82-1.707l.003-.018a3.41 3.41 0 00-1.647-3.593s-6.59-3.424-6.59-8.487a10.186 10.186 0 012.222-5.783 2.986 2.986 0 00-.05-3.78l-.62-.7a1.323 1.323 0 01.793-2.374l.041-.005c1.348-.277 2.34-1.12 2.21-1.88v-.729a9.737 9.737 0 019.734-9.736 6.867 6.867 0 012.31.26c2.444.957 2.207.602 3.56-1.206l.246-.418a1.32 1.32 0 012.5-.005l.368.637a2.823 2.823 0 003.526 1.138 7.277 7.277 0 012.74-.406 9.742 9.742 0 019.74 9.736v.648c-.1.678.915 1.457 2.264 1.73l1.152.241a1.32 1.32 0 01.791 2.369M325.533 192A133.533 133.533 0 10192 325.532 133.53 133.53 0 00325.532 192"></path><path class="cls-1" d="M192 384C86.131 384 0 297.869 0 192S86.131 0 192 0s192 86.131 192 192-86.131 192-192 192zm0-381.316C87.611 2.684 2.684 87.611 2.684 192S87.611 381.316 192 381.316 381.316 296.389 381.316 192 296.389 2.684 192 2.684z"></path><path class="cls-1" d="M131.914 345.464a5.473 5.473 0 004.22.053 5.547 5.547 0 002.768-7.147 6.067 6.067 0 00-7.396-2.863 5.6 5.6 0 00-2.767 7.146 5.458 5.458 0 003.175 2.811m60.279-3.725l-.458 8.02-11.865-.677-.21 3.682 11.866.677-.444 7.774-15.18-.865-.214 3.763 19.557 1.116 1.54-27.004-20.13-1.148-.215 3.763zm33.714 20.165a13.225 13.225 0 005.325-2.04 8.67 8.67 0 003.107-3.57 7.316 7.316 0 00.543-4.336 6.53 6.53 0 00-1.616-3.465 7.493 7.493 0 00-3.6-1.958 25.71 25.71 0 00-6.15-.688 17.093 17.093 0 01-5.42-.689 2.701 2.701 0 01-1.878-2.089 3.155 3.155 0 011.153-3.088 8.814 8.814 0 014.333-1.765 10.486 10.486 0 015.263.259 8.586 8.586 0 013.944 2.98l2.508-3.55q-4.283-4.836-12.402-3.438a15.264 15.264 0 00-5.39 1.906 8.482 8.482 0 00-3.266 3.368 6.779 6.779 0 00-.624 4.35 6.612 6.612 0 001.598 3.488 7.336 7.336 0 003.514 1.932 24.183 24.183 0 005.996.651 16.316 16.316 0 015.613.718 2.95 2.95 0 011.936 2.308 3.425 3.425 0 01-1.044 3.111 7.374 7.374 0 01-4.13 1.855 8.382 8.382 0 01-4.712-.312 8.196 8.196 0 01-3.432-3.027l-2.764 3.512a11.58 11.58 0 005.084 3.325 13.86 13.86 0 006.51.252m31.75-35.381l9.198 21.383 4.029-1.733-10.69-24.847-17.731 7.628 1.49 3.464zm29.013-18.476l4.694 6.518-9.644 6.945 2.155 2.993 9.644-6.946 4.551 6.319-12.338 8.886 2.203 3.059 15.897-11.449-15.808-21.948-16.362 11.784 2.204 3.06zm30.699 3.019l15.103-17.226-2.836-2.487-6.105 6.965-17.504-15.346-2.89 3.297 17.503 15.347-6.106 6.963zm20.338-33.128l3.324 1.779 9.228-17.234-23.846-12.767-2.07 3.866 10.261 5.494-5.61 10.477 3.36 1.799 5.61-10.478 6.901 3.695zm19.38-34.876l1.329-4.179-25.778-8.193-1.328 4.18zm5.244-21.265l3.032-22.708-3.737-.5-1.225 9.182-23.074-3.081-.58 4.346 23.073 3.081-1.226 9.18zm1.731-49.757a13.236 13.236 0 00-1.63-5.464 8.675 8.675 0 00-3.326-3.368 7.321 7.321 0 00-4.282-.869 6.531 6.531 0 00-3.578 1.35 7.484 7.484 0 00-2.224 3.443 25.737 25.737 0 00-1.15 6.079 17.091 17.091 0 01-1.097 5.353 2.7 2.7 0 01-2.224 1.714 3.157 3.157 0 01-2.993-1.382 8.812 8.812 0 01-1.432-4.454 10.484 10.484 0 01.654-5.23 8.595 8.595 0 013.27-3.707l-3.351-2.768q-5.144 3.907-4.364 12.107a15.281 15.281 0 001.493 5.519 8.502 8.502 0 003.113 3.511 6.778 6.778 0 004.29.95 6.62 6.62 0 003.599-1.33 7.331 7.331 0 002.191-3.358 24.15 24.15 0 001.103-5.93 16.301 16.301 0 011.14-5.543 2.95 2.95 0 012.447-1.756 3.425 3.425 0 013.023 1.276 7.379 7.379 0 011.538 4.26 8.387 8.387 0 01-.667 4.673 8.204 8.204 0 01-3.278 3.195l3.294 3.02a11.574 11.574 0 003.699-4.819 13.84 13.84 0 00.742-6.472m-24.574-53.646a5.476 5.476 0 00-3.028-2.941 5.546 5.546 0 00-6.924 3.285 6.067 6.067 0 003.399 7.164 5.599 5.599 0 006.924-3.284 5.459 5.459 0 00-.37-4.224m-27.502-51.34a13.215 13.215 0 00-4.72-3.201 8.656 8.656 0 00-4.705-.506 7.32 7.32 0 00-3.867 2.034 6.522 6.522 0 00-1.918 3.307 7.494 7.494 0 00.455 4.074 25.728 25.728 0 002.952 5.437 17.052 17.052 0 012.535 4.84 2.7 2.7 0 01-.638 2.735 3.16 3.16 0 01-3.194.821 8.811 8.811 0 01-3.925-2.545 10.476 10.476 0 01-2.8-4.465 8.585 8.585 0 01.19-4.939l-4.347-.026q-1.517 6.28 4.274 12.139a15.3 15.3 0 004.646 3.331 8.507 8.507 0 004.633.753 6.78 6.78 0 003.924-1.977 6.609 6.609 0 001.946-3.306 7.325 7.325 0 00-.425-3.988 24.181 24.181 0 00-2.896-5.291 16.3 16.3 0 01-2.62-5.015 2.951 2.951 0 01.784-2.908 3.428 3.428 0 013.15-.923 7.383 7.383 0 013.884 2.327 8.4 8.4 0 012.44 4.043 8.217 8.217 0 01-.52 4.547l4.46.258a11.57 11.57 0 00-.181-6.072 13.846 13.846 0 00-3.517-5.484m-24.58-19.31l-3.797-2.276-8.302 13.85q-1.98 3.304-4.306 4.036a7.822 7.822 0 01-8.612-5.162q-.452-2.397 1.53-5.7l8.3-13.85-3.795-2.276-8.576 14.307q-2.739 4.57-1.715 8.361 1.024 3.791 5.665 6.572 4.64 2.782 8.467 1.898 3.826-.883 6.565-5.453zm-38.148-18.785l-4.127-1.482-9.143 25.455 4.127 1.484zm-39.684 14.363l3.95-22.941-4.322-.744-4.589 26.657 19.023 3.275.64-3.716zm-34.438-.088l-.457-8.02 11.866-.676-.21-3.683-11.866.676-.444-7.774 15.18-.865-.214-3.764-19.558 1.115 1.54 27.005 20.13-1.148-.214-3.765zm-35.765-16.312a13.215 13.215 0 00-5.062 2.625 8.66 8.66 0 00-2.687 3.896 7.316 7.316 0 00-.053 4.368 6.534 6.534 0 001.993 3.262 7.504 7.504 0 003.8 1.542 25.772 25.772 0 006.186-.005 17.096 17.096 0 015.464.075 2.7 2.7 0 012.1 1.865 3.158 3.158 0 01-.799 3.198 8.812 8.812 0 01-4.107 2.24 10.49 10.49 0 01-5.26.334 8.58 8.58 0 01-4.253-2.519l-2.093 3.81q4.799 4.324 12.709 2.024a15.276 15.276 0 005.142-2.498 8.49 8.49 0 002.868-3.715 6.776 6.776 0 00.131-4.391 6.61 6.61 0 00-1.98-3.288 7.336 7.336 0 00-3.707-1.525 24.209 24.209 0 00-6.032.025 16.31 16.31 0 01-5.659-.083 2.953 2.953 0 01-2.182-2.076 3.427 3.427 0 01.689-3.209 7.392 7.392 0 013.896-2.307 8.39 8.39 0 014.716-.218 8.208 8.208 0 013.751 2.622l2.352-3.799a11.57 11.57 0 00-5.425-2.734 13.855 13.855 0 00-6.498.481M110.864 39.3l-3.823 2.23 8.134 13.948q1.94 3.329 1.46 5.72a6.377 6.377 0 01-3.419 4.104q-2.938 1.713-5.255.953-2.317-.758-4.257-4.088l-8.134-13.95-3.823 2.23 8.4 14.41q2.685 4.602 6.5 5.533 3.816.93 8.49-1.796 4.672-2.724 5.743-6.503 1.07-3.778-1.614-8.382zm-35.38 25.058l-3.156 3.045 11.553 11.975a9.14 9.14 0 012.801 4.672q.295 2.078-1.857 4.156a4.594 4.594 0 01-3.274 1.564 5.046 5.046 0 01-3.301-1.827q-.369-.383-1.333-1.618l-2.468 3.463a11.759 11.759 0 001.447 1.793 7.088 7.088 0 005.478 2.432q3.03-.105 6.098-3.066a9.69 9.69 0 003.37-6.924 10.032 10.032 0 00-3.236-7.1zM43.666 120.05a5.478 5.478 0 00-.515 4.19 5.546 5.546 0 006.8 3.535 6.068 6.068 0 003.658-7.036 5.136 5.136 0 00-2.718-3.122 5.085 5.085 0 00-4.082-.414 5.46 5.46 0 00-3.143 2.847m-.688 59.372l-.619 5.126-19.448-2.347.619-5.127a8.346 8.346 0 013.328-6.203q2.819-1.972 7.457-1.411 4.637.56 6.906 3.145a8.348 8.348 0 011.757 6.817m-23.151-2.795l-1.144 9.481 26.853 3.241 1.144-9.48q.767-6.348-2.31-10.27-3.076-3.92-9.505-4.696-6.429-.776-10.35 2.3-3.921 3.078-4.688 9.424m.071 30.568l.36 4.37 26.958-2.223-.36-4.37zm11.505 38.357l-1.687-6.083a6.141 6.141 0 01-.016-4.12 4.09 4.09 0 012.868-2.157 4.089 4.089 0 013.569.371 6.136 6.136 0 012.11 3.542l1.686 6.08zm19.075-18.475l-1.347-4.856-8.94 10.09a8.074 8.074 0 00-3.798-3.348 7.735 7.735 0 00-5.08-.143 7.391 7.391 0 00-5.067 4.042 10.373 10.373 0 00-.222 7.249l2.945 10.624 26.065-7.229-1.16-4.186-10.426 2.891-1.556-5.607zm4.563 47.18l3.137-1.778-4.083-7.202.678-.384a5.569 5.569 0 015.018-.537 8.17 8.17 0 013.978 3.774 7.636 7.636 0 01.804 6.777q-1.24 3.175-5.481 5.58-4.172 2.365-7.6 1.719a7.585 7.585 0 01-5.33-3.999 8.217 8.217 0 01-1.184-4.416 6.261 6.261 0 011.629-3.939l-3.656-2.544a10.638 10.638 0 00-2.105 6.093 13.673 13.673 0 002.041 6.758 13.158 13.158 0 004.815 5.044 11.521 11.521 0 006.43 1.536 16.097 16.097 0 007.224-2.258 16.548 16.548 0 005.702-5.024 11.289 11.289 0 002.027-6.19 12.663 12.663 0 00-1.793-6.568 11.472 11.472 0 00-3.34-3.855 7.855 7.855 0 00-4.095-1.447l2.935-1.805-1.598-2.816-12.157 6.893zm7.054 31.655l2.85 3.332 20.552-17.588-2.852-3.332zm24.655 23.648a13.221 13.221 0 005.066 2.617 8.669 8.669 0 004.733-.057 7.32 7.32 0 003.596-2.48 6.525 6.525 0 001.511-3.512 7.484 7.484 0 00-.935-3.992 25.73 25.73 0 00-3.579-5.046 17.1 17.1 0 01-3.093-4.504 2.7 2.7 0 01.308-2.792 3.158 3.158 0 013.073-1.195 8.813 8.813 0 014.2 2.06 10.49 10.49 0 013.312 4.099 8.588 8.588 0 01.4 4.927l4.318-.492q.758-6.415-5.688-11.543a15.292 15.292 0 00-5.01-2.755 8.498 8.498 0 00-4.69-.195 6.777 6.777 0 00-3.66 2.429 6.617 6.617 0 00-1.539 3.515 7.32 7.32 0 00.897 3.908 24.186 24.186 0 003.504 4.91 16.275 16.275 0 013.2 4.667 2.95 2.95 0 01-.433 2.98 3.426 3.426 0 01-3.017 1.292 7.384 7.384 0 01-4.133-1.849 8.388 8.388 0 01-2.904-3.723 8.21 8.21 0 01-.025-4.577l-4.46.275a11.567 11.567 0 00.903 6.007 13.837 13.837 0 004.144 5.026"></path></svg> 