<svg xmlns="http://www.w3.org/2000/svg" viewBox="0 0 100 99.986">
    <defs>
        <style>
            .cls-1{fill:#005941}
        </style>
    </defs>
    <g id="logo" transform="translate(.1 -.002)">
        <path id="Path_1" d="M88.859 60.5a11.565 11.565 0 0 0-2.661.988c-.608.3-.228.76.076 1.217a2.041 2.041 0 0 0 2.129.684 2.109 2.109 0 0 0 .836-2.205s-.076-.608-.38-.684z" class="cls-1" data-name="Path 1" transform="translate(-20.602 -14.497)"/>
        <path id="Path_2" d="M86.877 81.835c-.684.228-1.293.3-1.977.532a6.333 6.333 0 0 0 .3 1.141 2.192 2.192 0 0 0 1.977 1.217s.836-.3.912-.76a2.714 2.714 0 0 0 .076-1.9c-.224-.765-.832-.306-1.288-.23z" class="cls-1" data-name="Path 2" transform="translate(-20.369 -19.561)"/>
        <path id="Path_3" d="M67.839 85.45c.684 1.065 2.053.76 3.194.836.3-.152.836 0 .988-.38l-.228-.228-.912-.228a3.2 3.2 0 0 1-1.981-1.064 11.484 11.484 0 0 1-.684-1.369 1.634 1.634 0 0 0-1.445-1.065c-1.6-.532-3.726.3-4.942-1.369-.076-.228-.532-.456-.152-.608a8.143 8.143 0 0 0 3.041-.3s.608-.076 1.141-.152c.152 0 .76.076.836.076a6.011 6.011 0 0 1 3.65 3.041c.76.988 1.9.76 2.965.836a2.942 2.942 0 0 0 .69.074c1.521.228 1.9-2.053 3.5-1.521.076-.076.228 0 .152-.152-.152-.152-.38-.3-.532-.456a5.239 5.239 0 0 0-.608-.228c-.76-.228-1.369.608-2.129.912a2.623 2.623 0 0 1-2.585-.836c-.152-.3-.38-.684-.076-.912a9.571 9.571 0 0 0 2.053-.3c.988-.152 1.521-1.293 2.509-1.445.152 0 .912-.076 1.141-.076a18.832 18.832 0 0 1 2.053.228c.3 0 .684.532.988.076a2.375 2.375 0 0 0-1.217-1.217 6.172 6.172 0 0 0-3.878-.532c-.228.076-1.293.608-1.977.912a3.308 3.308 0 0 1-.988.38c-1.673.456-2.889-.38-4.258-1.141a6.778 6.778 0 0 1-.76-.38l-.912-.228a4.341 4.341 0 0 0-1.977 0c-.3 0-1.217.076-1.369.076a2.893 2.893 0 0 1-1.369-.228c-.228 0-.228-.152-.38-.228a5.177 5.177 0 0 1-1.749-2.129 8.463 8.463 0 0 1-.3-1.749 22.25 22.25 0 0 1-.076-2.509c0-2.965-.456-5.779.152-8.668a1.794 1.794 0 0 1 .988-1.217 1.114 1.114 0 0 1 .912-.152 1.966 1.966 0 0 1 1.445.988c.3.836-.38 1.521-.456 2.205 1.217.836-.532 1.445-.228 2.433a1.368 1.368 0 0 0 .684.456c.228.228.076.608.152.912 0 0-.3.456-.076.684.076.38.456.38.76.38.532.152.152.836.684 1.065.988-.228.532 1.6 1.673.988.38 0 .38-.532.3-.76a1.25 1.25 0 0 1 .608-.912 1.088 1.088 0 0 0-.228-.836.438.438 0 0 1 .456-.456.66.66 0 0 0 .38-.532c0-.532-.532-.912-.912-1.217-.152-.38.152-.608.38-.836-.228-.912-1.293-1.141-1.9-1.673l.076-.152c.076-.988-1.065-.76-1.445-1.369-.228-.38-.684-.836-.456-1.369a3.977 3.977 0 0 1 1.369.228c.912.532 1.9.76 2.737 1.369.228.152.836.532.836.532.228.228.456.38.456.684a7.921 7.921 0 0 1 .76 1.369 2.879 2.879 0 0 0-1.369 2.357c.076.152.076.3.228.38s.3 0 .456 0a9.846 9.846 0 0 0 3.346-.836c.076-.076.3-.228.3-.3 0-.152-.076-.228-.152-.38s-.152-.228-.228-.38a2.3 2.3 0 0 0-1.673-.988c-.38-.3-.38-.76-.456-1.217.38-.38.76-.076 1.141.076.152 0 .608.152.684.152a2.441 2.441 0 0 1 1.521 1.9c.3.684-.152 1.673.456 2.205 1.141.076.608.988.836 1.6a1.934 1.934 0 0 1 .152.532l.152.532a2.22 2.22 0 0 0 .684.152c.3-.152.532-.3.836-.228.684.228.532 1.065.988 1.6.38.152.684-.3 1.065-.3.38.076.532.456.76.76a1.094 1.094 0 0 0 .228.152c.152-.076.38-.076.532-.228.3-.152.532 0 .76.152.456.228.532-.38.912-.532 0-.38-.38-.456-.532-.684-.228-.3.076-.608.076-.912-.076-.38-.456-.456-.608-.684-.076-.3-.076-.532.152-.684.076-.76-.836-.684-1.217-1.141-.076-.38.152-.684.152-.988-.228-.228-.38-.684-.76-.76-.684-.3-1.521.076-2.129-.456-.228-1.369-1.673-.532-2.433-.988a11.85 11.85 0 0 0-.456-.38c-.076-.152-.152-.38 0-.456a8.4 8.4 0 0 0 3.118-.532c1.521 0 2.433 1.293 2.965 2.585.3.532.912.228 1.445.228a1.26 1.26 0 0 1 .76.76v.152c.076.228.608.3.912.38.076 0 .152-.152.228-.152.608-.836 1.369.38 2.053.3.3.076.456-.3.456-.532.532-.3 1.065 0 1.6 0 .152-.076.38-.152.38-.38a.861.861 0 0 1 .916-.548c.836 0 .38-.836.684-1.293-.152-.532-.836-.228-1.141-.532 0-.988-.988-.608-1.6-.912-.152-.228-.076-.608-.38-.836a3.153 3.153 0 0 0-1.445.076c-.3 0-.38-.3-.608-.532-.532-.456-1.521.076-1.521.076a1.094 1.094 0 0 1-1.141.3c-.912-.76-1.673.76-2.737.38-.152-.076-.38-.152-.3-.456a16.284 16.284 0 0 0 1.445-.988 5.761 5.761 0 0 1 3.5-.456c.38-.152.456-.608.836-.912.988-.076 2.281.456 3.041-.532-.608-1.749 1.6-.76 2.129-1.825.228-.456-.228-.608-.38-.912-.3-.836.76-.836.988-1.521.228-.228-.076-.456-.228-.684-.38-.456.076-.988.228-1.369.228-.608-.532-.684-.684-1.141-.456-.152-.76.3-1.065.532-.608.38-.836-.38-1.369-.38-.228.076-.456.228-.456.456-.38 1.141-1.141-.228-1.749.228-.532.38-.456 1.065-.532 1.749-.3.76-.988-.152-1.521.3-.608.684-.152 1.445-.532 2.205a1.637 1.637 0 0 1-.836.152c-.608.152-.3.912-.608 1.369a4.3 4.3 0 0 1-2.053 2.129.531.531 0 0 1-.3.152 8.416 8.416 0 0 1-1.977.532 9.361 9.361 0 0 1-2.053.152 7.5 7.5 0 0 1-1.825-.228 19.022 19.022 0 0 1-2.889-1.141c-.076-.076-.3-.152-.228-.38.76-.76 1.749-.152 2.585-.076.912-.912 1.673.836 2.585.152.38-.988 1.369-.076 2.053-.228.38-.076.3-.532.38-.912.3-.532.912-.076 1.293-.456.3-.152.076-.532.228-.76.076-.456.684-.228.912-.456.532-.228 0-.912.228-1.293-.38-.76-1.673.152-1.825-.912-.608-.76-1.141.228-1.825.076-.152-.152-.228-.228-.228-.38-.532-.988-1.445-.3-1.825.152-.152.228-.3.38-.3.456-.3.152-.608-.3-.912-.3-.988.3-.76 1.521-1.521 1.977-.836.3-.532 1.521-1.293 1.977-.684.228-1.293.76-2.053.456A15.712 15.712 0 0 0 62.82 56.4c-1.293-.3-2.509.228-3.726.152-.76-.228-.836-1.141-.988-1.825 0-1.749-.3-4.942-.152-5.931a8.021 8.021 0 0 1 .38-1.445A3.031 3.031 0 0 1 61 45.987a2.756 2.756 0 0 1 1.9 3.113c-.3.38.228.608.228.912a.235.235 0 0 1 .076.152c0 .684-.684 1.141-.608 1.9a.775.775 0 0 0 .608.38c1.065.608-.608 1.749.38 2.357.228.076.456.228.608.076a.614.614 0 0 1 .684.3 1.226 1.226 0 0 0 .532 1.065.457.457 0 0 0 .3.076c.608-.228.836.38 1.369.684.076.076.3.076.3.076a1.969 1.969 0 0 0 .836-.532c0-.152.228-.456-.076-.532-.684-.912.684-.912.76-1.673-.228-.38-.684-.684-.76-1.217-.076-.456.608-.3.608-.836 0-.684-.76-.912-1.217-1.217-.228-.38.152-.532.152-.912a1.914 1.914 0 0 0-1.369-.836c-.3-.228-.836-.532-.532-.988-.3-.684-1.141-.456-1.6-.836s-1.217-.76-1.293-1.445c0-.456.532-.38.836-.38.76.228 1.521.228 2.205.456.228.076 1.065.228 1.293.3a9.63 9.63 0 0 1 1.38.47c.38.456 1.065.836.912 1.521A2.352 2.352 0 0 0 68.6 50.4c.152.836.532.608.912.456.912-.456 2.281-.532 3.041-1.369.38-.3-.684-1.217-.684-1.217-.456-.532-1.217 0-1.673-.532a1 1 0 0 1-.228-.76c.076 0 .152-.152.152-.152 1.065.456 2.509-.152 3.118 1.141a10.879 10.879 0 0 1 .38 1.369c.152.152.228.38.532.38.988.076.684 1.217 1.065 1.825a1.221 1.221 0 0 0 .836.38c1.217-.836.988 1.065 1.9 1.293a.94.94 0 0 0 1.065-.3c.532-.38.912.3 1.369.38.38.152.532-.228.836-.38.3-.076.684-.228.912.152.684-.152.76-.684.912-1.065.3-.912-1.217-.76-1.065-1.521 0-.076.076-.3-.076-.456a1.688 1.688 0 0 0-.836-.38c-.532-.152-.228-.608-.38-.988-.228-.532-.836-.532-1.293-.532-.228.228-.532.152-.836.228-.38-.152-.532-.456-.76-.76-.456-.228-1.141.076-1.673.152a2.244 2.244 0 0 0-2.053-.38c-.3.152-.456-.076-.532-.3V46.9c.38-.38.912-.076 1.293-.3.152-.076.608-.228.608-.228 1.065-.152 1.977-.684 3.118-.532 1.217 0 1.6 1.825 2.965 1.445.684.38.684 1.293 1.369 1.673a.7.7 0 0 0 .912-.228c.608-.152.836.38 1.217.608.456.228.912-.152 1.141-.532.532-.228.912.456 1.369.3.3 0 .38-.456.684-.608.456 0 .76.152 1.217.152.456-.152.3-.76.684-.836l-.152-.152c.3-1.217-1.9-.836-1.293-2.357-.228-.684-.988-.228-1.369-.684a.729.729 0 0 1-.152-.684c-.608-1.065-1.749-.076-2.661-.152-.456 0-.228-.76-.76-.532-.76-.152-1.217.988-1.977.836-1.445-.684-2.433 1.217-3.878.532.3-1.293 1.825-.836 2.509-1.825.152-1.6 2.129-.684 2.813-1.9.228-.532-.228-.836-.152-1.369.532-.76 1.6-1.293 1.673-2.281-.076-.456-.456-.608-.76-.836-.456-.38 0-.912.228-1.293 0-.456.152-.912-.3-1.141-1.065 0-.456-1.141-.76-1.673a.726.726 0 0 0-.76-.152c-1.521-.76-.608 1.749-1.977 1.445-1.065.456.076 1.6-.684 2.205-.152 0-.3.152-.456.152a.576.576 0 0 0-.3.152 2.616 2.616 0 0 0 .152 2.129c-.152.152-.228.456-.456.456-1.065.608.152 1.521-.076 2.357-.836.456-.38 1.293-.76 1.977a2.722 2.722 0 0 1-2.205 1.6c-.076 0-.532.152-.608.152a14.957 14.957 0 0 1-1.836.224c-.608 0-.912-.152-1.369-.152-.228-.152-.76 0-.76-.38a1.7 1.7 0 0 1 1.293-.456c.836.38 1.065-.76 1.749-.912a1.242 1.242 0 0 0 .532 0 2.689 2.689 0 0 0 .456-.076.967.967 0 0 0 .836-.76c-.532-1.141 1.065-.912 1.445-1.6a.637.637 0 0 0-.228-.912c-.152-.532.228-.76.456-1.141.152-.38-.228-.456-.38-.684-.228-.456.228-.836.228-1.293a1.254 1.254 0 0 0-.608-.76c-.532-.228-.684.532-1.065.76-.3.228-.608-.076-.912 0a.775.775 0 0 0-.38.608c-.228.76-.912.076-1.293.608a1.934 1.934 0 0 0-.228 1.141.278.278 0 0 1-.38.152c-.076 0-.3 0-.38.076-.76.456-.38 1.369-.456 2.129-.228.3-.608.608-.608.988.152.3-.228.76-.228.912l-.456.456a2.342 2.342 0 0 1-2.433.3c-.152-.076-.456-.076-.38-.3.456-.456 1.6-.228 1.521-1.141-.076-.076-.228 0-.3-.076.456-.38 1.293-.532 1.445-1.293-.076-.228-.228-.152-.38-.152 0-.532.532-.912.38-1.369-.532-.152-.912.456-1.293.684a1.285 1.285 0 0 1-.228-.76c-.608-.228-.684.836-1.217.988-.076-.076-.228-.456-.532-.38-.76.836-.076 2.357-1.293 2.813-.988.228-2.205-.3-3.346-.456a9.237 9.237 0 0 0-3.8.532c.076-.076-.456.228-.684.3-.456 0-.532-.3-.76-.836a12.681 12.681 0 0 1-.152-2.357 9.15 9.15 0 0 1 0-1.445 3.006 3.006 0 0 1 1.9-2.509c.456-.076.988-.228 1.369.076 0 .076.456.3.684.608a1 1 0 0 1-.228.912 1.829 1.829 0 0 0 .152 1.977c.076.076.152.152.228.152.456.076.988-.456 1.445-.684a8.4 8.4 0 0 0 1.9-1.749 2.538 2.538 0 0 0-1.9-.912h-.608c-.608 0-.76-.76-1.141-.988a.468.468 0 0 1 .076-.532 2.639 2.639 0 0 1 2.129-.456 1.794 1.794 0 0 1 1.521 1.293.978.978 0 0 0 .988.608c.684-.076.836.836 1.293 1.217.152 0 .228.228.38 0a.729.729 0 0 1 .76-.228c.608.38.912.76 1.141.836.76.38.76-.76 1.445-.608a1.83 1.83 0 0 0 1.514.231c.456-.076.38-.532.532-.836.076-.076.3-.38.38-.456.228-.152.684 0 .988-.076a.922.922 0 0 0 .532-.912c-.076-.152.684.228.988-.152.3-.3-.076-.684-.076-1.065-.3-.684-.988 0-1.521-.228-.228-.076-.3-.38-.456-.532-.38-.38-.684.152-1.065.228-.532.38-.684-.456-1.065-.608a1.718 1.718 0 0 0-1.141.38c-.836.456-.836-.912-1.6-.684-.456.3-1.065.38-1.293.912a1.273 1.273 0 0 1-1.369 0c-.76.3-1.9.684-2.585 0 .076-.228.38-.3.608-.456.912-.988 2.129-.76 3.27-.608.38-.456.608-.76.608-.76.456-.38.988 0 1.521-.152a1.3 1.3 0 0 0 1.293 0c.684-.152.3-.912.684-1.293.912-.3 2.129.38 2.661-.76-.684-1.065.608-1.293.988-1.977.3-.3 0-.76-.3-.912-.3-.76.684-.988.608-1.673A1.891 1.891 0 0 0 74 24.089a1.623 1.623 0 0 1-2.129.152c-.38.076-.608.456-.836.836-.456.3-.836.076-1.293-.152a1.518 1.518 0 0 0-.608.76c-.3.38.076 1.065-.456 1.369-.38.228-.684-.228-1.065-.152a2.871 2.871 0 0 0-.76.912 3.346 3.346 0 0 0-.152.76.976.976 0 0 1-.3.76 1.081 1.081 0 0 1-.456.152c-.076 0-.608.152-.684.3-.3.38-.3.912-.532 1.293a3.7 3.7 0 0 1-2.965 1.825c-.152 0-.152-.228-.152-.3a3.531 3.531 0 0 1 1.817-2.204c0-.152.076-.228.076-.38.152-1.445 2.281-.684 2.281-2.357-1.141-1.521 1.445-1.521 1.065-2.965-.152-.3-.456-.38-.76-.532-.3-.228-.228-.684-.152-.988a1.254 1.254 0 0 0 0-1.521c-.228-.076-.38-.3-.684-.228-.76-.228-.228-1.141-.456-1.673s-.684-.38-1.065-.3a1.135 1.135 0 0 0-.532.228 2.475 2.475 0 0 0-.3 1.065c-.228.38-.608.228-.912.228-.988.228-.228 1.369-.76 1.9l-.076.152c-.38.228-.912.228-1.065.76a2.933 2.933 0 0 0 .836 1.673c.532.988-.608.912-.76 1.521A4.665 4.665 0 0 0 61 28.727a.868.868 0 0 1-.38.988c-.3.38 0 .836.152 1.217.38.836-.228 1.6-.608 2.205-.532.608-1.369.684-2.053.988a2.371 2.371 0 0 1-1.6.684c-.38-.152-.228-.608-.3-.836a3.047 3.047 0 0 1 1.825-1.521c.684-.3.608-.684.608-.76 0-.3-.3-.152-.38-.38 0-.38.456-.3.608-.532a1.25 1.25 0 0 0 .608-.912c-.076-.228.076-.456-.152-.608-.456 0-.684.608-1.141.38v-.152a3.633 3.633 0 0 0 .836-.456 1.548 1.548 0 0 0 .38-1.369.341.341 0 0 0-.608-.152c-.3.76-1.141.988-1.673 1.445l-.989 1.521c-.532.608-.3 1.521-.684 2.129a.686.686 0 0 1-.38-.076c-.152-.228-.228-1.673.152-1.825-.076-.684 1.217-1.065.608-1.749-.456-.912.76-1.217 1.217-1.749.684-.684-.608-.684-.456-1.369.38-.684 1.445-1.141 1.217-2.205-.076-.684-.836-.152-1.065-.76-.152-.684.3-1.217.228-1.825-.228-.76-1.065-.3-1.445-.836a4.444 4.444 0 0 1-.152-1.369c0-.152-.228-.38-.228-.38-.38-.3-.836.076-1.293 0a.872.872 0 0 0-.456 0c-.684.3-.076 1.445-.608 1.9-.3.076-.76 0-.988.076-.38.228-.3.836-.3 1.217a5.981 5.981 0 0 1 .3.912c0 .684-.912.3-.988.988-.228.532.152 1.141.228 1.369l.608.38c1.521.608-.608.988-.076 1.977a3.223 3.223 0 0 0 .988.608l.456.38a.279.279 0 0 1 .076.228s-.456.684-.228 1.065a2.834 2.834 0 0 1 .76 3.117c-.76-.228-.532-1.369-.912-1.825-.532-1.521-2.433-1.673-2.965-3.194-.228.152-.532.532-.456.836.076.76.684 1.065 1.141 1.6-.38.228-.684-.152-1.065-.228-.152 0-.152.076-.152.152v.532a2.368 2.368 0 0 0 1.217 1.065c.076.38-.3.152-.38.456a.929.929 0 0 0 .3.684c.76.608 2.205.684 2.205 1.977a.513.513 0 0 1-.3.456c-.3.076-.988-.3-.988-.3a5.083 5.083 0 0 1-2.969-1.678 2.557 2.557 0 0 1-.3-.76c-.152-.608.228-1.445.152-2.129-.912-.912.608-1.825.3-2.813.076-.608-.684-.38-.836-.836-.3-.988.836-1.445.836-2.433 0-.532-.608-.456-.988-.608-.38-.532-.228-1.141-.3-1.749-.152-1.141-.912 0-1.369-.532a12.181 12.181 0 0 1-.532-1.445c-.38-.152-.684.076-1.141.076-.836.3 0 1.369-.684 1.9a.827.827 0 0 1-.38.076c-1.293.3-.228 1.6-.456 2.433a1.518 1.518 0 0 1-.76.608c-.3.988.76 1.673 1.293 2.433.152.456-.228.76-.3 1.141.228.684.988.912 1.6 1.141.836.3.608 1.521 1.369 1.749.076 0 .3.228.38.228.228.228.532.38.684.684 0 .228.38.684-.076.836a11.749 11.749 0 0 1-1.749-.456c-1.065-.38-1.293-1.6-1.673-2.509-.3-.3-.836-.152-1.217-.38-.38-.76-.38-1.673-.76-2.357-.228-.152-.38-.38-.684-.3-1.445.912-.988-1.217-1.673-1.749-.228 0-.38-.076-.608.076-.684.228-1.065-.456-1.521-.836-.456-.228-.76.3-1.217.38a1.221 1.221 0 0 1-.836-.38c-.684-.608-.988.38-1.445.684-.38.76.684 1.065.76 1.6a.882.882 0 0 1-.3.76c-.228.3-.076.532.076.76a11.693 11.693 0 0 0 .988.912 3.7 3.7 0 0 1-.076.912c.456.76 1.217.684 1.977.608.684 0 .684.608.76.912.456 1.293 1.977.152 3.041.456.456 0 .38.608.76.76.3 0 .532.228.836 0 .684-.456 1.6.076 2.281.38.3.228.912.38.836.912a2.973 2.973 0 0 1-2.281-.228c-1.065.608-1.9-.228-2.585-.836a.84.84 0 0 0-.608 0c-.152.152-.228.456-.456.532-.076 0-.38.076-.456.076-.228 0-.456-.3-.684-.456-.3-.076-.684-.152-.912.152-.38.988-1.369.076-2.053.3-.38 1.141-1.293-.076-1.9.608a1.5 1.5 0 0 0-.228 1.141 1.351 1.351 0 0 0 .76.3.932.932 0 0 1 .608 1.065c.228.456.76.3 1.141.532.76-.3.608.836.988 1.141a1.962 1.962 0 0 0 1.6-.228c.608-.3.684.3 1.065.532a2.724 2.724 0 0 0 .836-.3c.456-.152.684-.988 1.293-.836 1.141.912 1.141-1.217 2.129-.988.76-.3.988-1.369 1.673-1.749a2.185 2.185 0 0 1 1.825 0c.38.152.912.228.912.76-.3.38-.532 1.065-1.141 1.217a2.2 2.2 0 0 0-2.433.76c0 .3.532.608.76.836.912.532 1.6 1.6 2.661 1.673a1.919 1.919 0 0 0 .456-1.293 4.643 4.643 0 0 0-.228-.988c-.152-.228-.38-.456-.228-.684a1.969 1.969 0 0 1 1.977-.836 4.669 4.669 0 0 1 1.9 1.749c.152.152.152.228.152.532a28.1 28.1 0 0 1 .152 3.574 1.682 1.682 0 0 1-.152.912.916.916 0 0 1-.76.532 5.873 5.873 0 0 0-4.182-.76c-1.293 0-2.509.76-3.8.456-.988-.3-.76-1.521-.988-2.281-.228-.608-.532.076-.836.076-.228-.152-.228-.38-.3-.608a.73.73 0 0 0-.684-.532c-.3.152-.228.608-.608.684-.076-.076-.152-.076-.228-.152l-.456-.456c-.152-.152-.38-.228-.532.076a3.359 3.359 0 0 0 .456 1.217c-.38.228-.152.532 0 .76.076.076.3.3.38.3.456.228.456.76.836 1.065.228.228.38.3.456.3.228.076.532.076.608.38a2.946 2.946 0 0 0-.836.228c-.684 0-1.293.3-1.9-.076-.3-.228-.76-.532-.608-.988-.228-.3-.152-.76-.3-1.141-1.217-.152-.3-1.369-.532-2.053-.152-.684-.912-.456-1.293-.532a5.02 5.02 0 0 0-.076-1.065c-.076-.532-.608-.532-.988-.38-.3-.076-.38-.38-.456-.608-.228-.532-.76-.38-1.141-.3a2.977 2.977 0 0 1-.608-.76c-.228-.228-.532 0-.836.076-.988.684.532 1.6-.456 2.205-.3.456.3.684.532 1.141.228.532-.532.532-.38 1.065.3.684 1.065.608 1.521 1.065.228.228-.076.532-.076.76.3.988 1.445.684 2.205.76.38.228.3.684.76.76l1.369.152a3.58 3.58 0 0 1 .38.152c.152.152.38.076.38.38-.152.152-.38.076-.456.228-.684 0-1.445.3-2.053.076a4.6 4.6 0 0 1-4.106-1.369c-.836-.608.3-2.129-1.065-2.281-.3-.76.608-1.217.3-2.053-.076-.532-.608-.228-.912-.608-.38-.76.76-1.521.152-2.205a1.432 1.432 0 0 0-.608-.152c-.152 0-.3-.3-.3-.3-.3-.608.3-1.445-.3-2.053-.152.076-.38-.076-.532-.076-.684 0-.532-.76-.684-1.217-.228-.684-.912-.3-1.369-.38-.684.3-.608 1.065-.532 1.673-.152.456-.608.3-.912.456a.685.685 0 0 0-.076.38 3.257 3.257 0 0 0 .38 1.217c.456.912-.912.836-.76 1.673a2.212 2.212 0 0 0 1.101 1.665c.76.38.152 1.293.3 1.749.76.988 2.053.684 2.889 1.445 0 1.065 1.141.912 1.749 1.293.3.3.912.456.836.912-.076.076-.532 0-.684 0-.988.076-1.9-.684-2.889-.836-1.065 1.065-1.825-1.141-2.965-.38-.456.988-1.369-.076-2.053 0-.38.152-.912.076-.988.684.228 1.293-1.445.3-1.6 1.293.228.836-.608 1.217-1.141 1.673-.38.38-.076.836.152 1.293.076.076.076.3.228.38.38.152.76-.152 1.217-.228a.737.737 0 0 1 .608.532c.456.228.836-.152 1.141-.3.608-.3.532.532 1.065.608.532.152.988-.532 1.445-.836a.8.8 0 0 1 .684.38c.988.228 1.141-1.065 1.6-1.673s1.369.076 1.673-.76c1.521-1.521 3.8-.912 5.475-.228.456.228 1.065-.076 1.369.3-.456.988-1.673.152-2.281.38-.532.532-.912.152-1.6.152a.57.57 0 0 0-.38-.076c-.228.076-.3.152-.38.456-.456 1.293-1.749-.228-2.509.532-.38.3 0 .684-.152.988-.228.3-.608.3-.912.456a.925.925 0 0 0-.532 1.065c-.152.532-.684.228-.912.684-.228.3 0 .684.152.988.456.988 1.6-.3 2.053.684a.785.785 0 0 0 .912-.152c.836-1.141 1.293.836 2.053.076 0 0 .532-.684.76-1.065.3-.608.912-.152 1.369-.228.684-.456.76-1.217 1.065-1.825 1.521-.3.912-2.053 1.977-2.889a3.257 3.257 0 0 1 1.293-.456 3.764 3.764 0 0 1 1.6 0c.076.228-.152.3-.152.532-.228.76-.836.608-1.369.684-.456.228-1.217.532-1.217 1.293a6.068 6.068 0 0 0 3.726 1.369c.38-.076.456-.38.532-.76-.076-.836-1.141-1.217-.912-2.129.228-.684.912-.988 1.445-1.369 1.749-.3 3.041-1.065 5.018-1.065.3.152.228.228.152.38a9.939 9.939 0 0 1-2.737 2.053 2.439 2.439 0 0 0-.228.38l-.152.532s-.152.3-.228.3c-.456.228-1.065.228-1.445.684-.3.152-.152.38-.152.684.532.988-.76.76-1.065 1.445-.38.532.3.684.456 1.065.076.608-.608.912-.532 1.445a1.208 1.208 0 0 0 .76.608 5.374 5.374 0 0 1-.152 1.293.457.457 0 0 0 .076.3c.3.228.608.456.912.38.456 0 .608-.532.836-.76l.836.076c.152-.076.684-.152.608-.684a.8.8 0 0 1 1.141-.608c.988-.38.38-1.445.532-2.129.076-.3.38-.3.608-.38.456-.988-1.065-1.977 0-2.813a2.168 2.168 0 0 0-.152-1.217c-.076-.152.076-.38-.076-.456-.152-.38.38-.988.532-1.217.456-.608 1.065-.608 1.749-.76a3.451 3.451 0 0 1 2.509 1.445 3.756 3.756 0 0 1 .38 1.217v5.855a3.112 3.112 0 0 1-.532 1.9 1.455 1.455 0 0 1-1.141.3A9.341 9.341 0 0 0 42.9 58a14.126 14.126 0 0 0-1.445.836c-.76.456-1.673-.076-2.357-.532a9.628 9.628 0 0 1-.988-1.673 1.631 1.631 0 0 1-1.217-1.293c-.228-.3-.38-.836-.912-.608-.76.836-1.521-.684-2.281-.684-.456 0-.456.532-.836.76-.608.076-1.065-.3-1.6-.228-.38.152-.3.532-.38.76a1.913 1.913 0 0 1-1.141.076c-.532 0-.684.76-.684.76-.228 1.217 1.369.532 1.445 1.673.228.684.836.38 1.369.532.38.228.152.836.532 1.065a2.067 2.067 0 0 0 .684 0c.38-.076.836-.456 1.141-.152.608 1.445 1.445-.228 2.357-.076.38.532.912 0 1.369-.076.3-.076 1.065.076 1.065 0 .228.076.532.228.532.532a7.662 7.662 0 0 1-2.433 1.065 9.467 9.467 0 0 1-6.311.076c0-.076-.228-.076-.228-.076-.836-.532-1.9-.912-2.357-1.9-.152-.532-.228-1.141-.456-1.749-.228-.3-.608-.076-.912-.152a9.817 9.817 0 0 1-.38-1.6c-.3-.228-.38-.76-.836-.684-1.673.988-.456-1.521-1.521-1.825a.493.493 0 0 0-.76.228c-.76.456-.988-.532-1.369-.836-.456-.228-.608.38-.988.532a1.553 1.553 0 0 1-.988-.608c-.608-.608-.912.38-1.369.608 0 .684.532.988.532 1.673a1.364 1.364 0 0 0-.38.532c.076.532.608.912.988 1.293.3.532-.532.684-.456 1.141.38.988 1.521.608 2.205.988a.7.7 0 0 1 .076.76c.684 1.369 2.281.152 3.27.836-.076.3.3.38.456.532a6.411 6.411 0 0 1 5.094 1.369v.456a2.567 2.567 0 0 1-1.521.152c-.532-.152-.836-.532-1.369-.608-.684.684-1.293-.152-1.977-.38-.684-.38-.912.38-1.369.684-.38.076-.684-.152-1.065-.228a.764.764 0 0 0-.836.38c.076.988-.988.684-1.445.988.076.988-.988.608-1.369 1.065a.231.231 0 0 0 0 .3c.152.38-.076.684.228 1.141.228.228.608.152.912.228.456.912 1.445.608 2.205.608.456-.076.3.532.684.608a1.668 1.668 0 0 0 1.293-.532c.456-.38.836.152 1.293.152.532.076.912-.532 1.217-.912a.579.579 0 0 1 .684.076 3.208 3.208 0 0 0 1.749-2.205 2.537 2.537 0 0 1 1.673-.836c.912-.3 1.825.3 2.813.3a1.483 1.483 0 0 1 1.141 0c-.3.988-1.6.988-2.433 1.065-.456.076-.38.608-.684.836a1.435 1.435 0 0 1-1.217.228 1.766 1.766 0 0 0-1.445.684 1.13 1.13 0 0 0 .152.684c.152.836-.76.76-1.141 1.141-.152.228-.228.608.076.76.076.456-.3.684-.608.988a.559.559 0 0 0 .152.456c.3.456-.152.836-.38 1.065-.152.38.38.76.532.836a2.277 2.277 0 0 0 .608-.3c.3-.228.456.3.988.152.3-.076.38-.608.456-.684.228-.152.684.076.912 0a1.142 1.142 0 0 0 .836-.912c.228-.684 1.065-.38 1.521-.456a2.52 2.52 0 0 0 .684-2.129c0-.456.532-.456.836-.456a.82.82 0 0 0 .456-.836 14.518 14.518 0 0 1 .456-2.509c.076 0 .076-.152.076-.152a2.277 2.277 0 0 1 1.141-.912c.532-.076 1.141-.532 1.673-.152a3.307 3.307 0 0 1-.3 1.521 1.907 1.907 0 0 0-1.825 1.141c-.076.38-.228.836-.076.836.76.3 3.574.684 4.106.3.3-1.065-.532-1.673-1.065-2.205l-.076-.228c0-2.205 2.281-3.041 3.878-3.726a1.083 1.083 0 0 0 .3-.152c.684-.152 1.445-.76 2.053-.38 0 .076.076.3 0 .456 0 .076-.228.3-.228.38-.3.836-1.217 1.141-1.977 1.445a1.324 1.324 0 0 0-.076.684c-.152.684-.912.608-1.369.912.38.456-.3.456-.152.76.608.836-.988 1.445-.456 2.281.532.3.532.988.456 1.6a.943.943 0 0 1 .38 1.141c.076.38.532.3.836.38.38 0 .456-.38.456-.76.076-.228.38-.3.608-.3a.562.562 0 0 0 .38-.456c.152-.456.456-.608.912-.76.684-.608-.228-1.445.228-2.053 1.521-.456-.608-1.749.38-2.509.3-.456-.3-.836-.38-1.217a1.31 1.31 0 0 1 .456-1.369c.456-.684 1.141-.532 1.825-.608 1.6.38 1.673 1.825 1.6 3.27v3.5c-.076 1.825-.228 5.018-.456 7a5.665 5.665 0 0 1-.988 1.9c-1.521 1.825-3.954 1.217-6.007 1.217a14.466 14.466 0 0 0-2.433 1.445.867.867 0 0 1-.456.228 9.012 9.012 0 0 1-2.433.38c-.3 0-.684-.152-.988-.152a8.528 8.528 0 0 1-.988-.38 8.88 8.88 0 0 0-4.106-.456 5.3 5.3 0 0 0-2.509 1.293c-.076.152-.076.3.076.38a.964.964 0 0 0 .456-.076c.152 0 .532-.152.684-.152a5.4 5.4 0 0 0 1.065-.152l.532-.076c1.9-.532 3.041 1.6 4.866 1.445a2.286 2.286 0 0 1 1.369.3c.3.608-.3 1.217-.76 1.521a3.226 3.226 0 0 1-2.661-.152 1.656 1.656 0 0 0-.608-.38 2.249 2.249 0 0 0-1.977.456c.076.076.076.228.152.228 1.141-.3 1.977.684 2.737 1.293a4.87 4.87 0 0 0 4.106-.456c1.141-1.217 2.129-3.041 3.954-3.422a3.923 3.923 0 0 1 .836-.152h.76a12.508 12.508 0 0 0 2.433.38c.456-.076.988-.3 1.369 0-.836 2.205-3.574 1.825-5.323 1.977-1.6.456-1.369 2.433-2.737 3.041-.532.608-1.521.532-2.281.988v.152c.3.3.684.152 1.065.3.836-.076 2.053.152 2.737-.456a8.08 8.08 0 0 0 .684-.836c.38-.608.608-1.445 1.369-1.369a1.26 1.26 0 0 1 .152 1.521 3.69 3.69 0 0 0 .684 3.5c.3.228.608.76 1.065.532a4.919 4.919 0 0 1 .912-5.247 7.322 7.322 0 0 1 1.521-.228 11.8 11.8 0 0 0 4.106-3.422l.38-.076c.38.38.3.912.456 1.369.076.532-.38.912-.608 1.369-.228.152-.608.456-.608.456a4.189 4.189 0 0 0-1.291 1.522 5.233 5.233 0 0 0-.152.988c0 1.673-1.521 2.661-2.889 3.422a.457.457 0 0 0 .076.3c.988.3 1.977-.3 2.889-.608a2.871 2.871 0 0 1 .608-.38 4.152 4.152 0 0 0 .912-2.129 1.605 1.605 0 0 1 1.293-1.065.677.677 0 0 1 .38.608c.228 1.217.228 1.369.38 2.357.076.608 0 1.141.38 1.521s.3.684.76.608c.912-.608.836-1.749 1.065-2.585a16.667 16.667 0 0 0 .3-2.281c.076-.38.456-.38.684-.3 1.445.912.608 3.422 2.585 3.8l.152.076a9.081 9.081 0 0 0 2.509.3.4.4 0 0 0 .152-.3c-.608-.608-1.445-.608-1.977-1.217-1.369-1.065-.228-3.5-2.053-4.334-.456-.456-1.369-.912-1.445-1.6v-.912c0-.152.076-.3.076-.456.076-.3.228-.836.608-.608a7.781 7.781 0 0 0 4.03 3.27c.836.228 1.749 0 2.205.912a2.347 2.347 0 0 1 .38.76 7.032 7.032 0 0 0 .38.76 3.609 3.609 0 0 1-.532 3.041c0 .152.152.228.3.152a3.435 3.435 0 0 0 1.977-3.118c-.076-.912-.836-1.521-.684-2.433 1.073-.221 1.605.995 2.29 1.755zm-3.726-22.2a4.286 4.286 0 0 0-.3-.912c-.076-.228.152-.152.152-.152.076.38.152.38.456.836a7.714 7.714 0 0 0 .988.684c.228.076.076.228.076.228-.3-.076-.912-.532-1.065-.3a.9.9 0 0 0 .3.836 2.058 2.058 0 0 1 .836.76s-.076.152-.152.152c-.228-.076-.38-.532-.608-.456-.3.456.152.988.228 1.369.152.38.38.152.532.228.076 0-.076.228 0 .228-.684 0-.38.684-.76.684h-.076a.863.863 0 0 0 .228-.608 1.733 1.733 0 0 0-.228-.836c-.076-.076-.076-.3-.152-.456a.887.887 0 0 0-.456.456c0-.076-.152-.152-.152-.152a3.14 3.14 0 0 0 .533-.839.631.631 0 0 0-.152-.608c-.228-.152-.076-.608-.228-.608l-.456.456c0 .152-.076-.076-.076-.076.152-.308.38-.612.532-.916zm10.493 1.6c.456.228.38.608.988 1.065 0 .076.3-.152.38-.152l.076.076c0 .152-.3.152-.38.38-.152 0 .456.608 1.293 1.141a2.067 2.067 0 0 0 .684 0h1.217c-.076.076 0 .152 0 .228-.38.152-1.217-.228-1.6.152a6.071 6.071 0 0 0 1.825 1.217c.076 0 .3-.152.38-.152.152 0 0 .152 0 .152l-.228.228a6.755 6.755 0 0 0 1.448 1.215c.152.076 0 .152 0 .152-.456 0-.836-.684-1.141-.76-.076-.076 0 .228-.152.228h-.152c0-.152.076-.3 0-.38a1.776 1.776 0 0 0-.532-.532c-.38-.152-.76-.684-1.217-.76a2.106 2.106 0 0 0 .076.988c0 .076-.076.076-.076.152-.3-.38-.152-1.065-.38-1.445-.532-.38-1.369-1.445-1.521-1.217l-.152.3c0 .152-.076-.076-.076-.076-.076-.076-.076-.3 0-.608 0-.38-.3-.684-.532-1.065-.152-.152-.304-.228-.228-.532zm6.615-1.9c.152 0 .228-.228.38-.152l.076.076c0 .076-.076.228.152.3.456.38.912.3 1.445.38a3.13 3.13 0 0 1 .608-.228v.152c-.076.152-.228.152-.076.3a5.7 5.7 0 0 0 2.281.152 3.552 3.552 0 0 0 .76-.38l.076.152c-.076.076-.3.3-.228.38v.076a8.045 8.045 0 0 0 1.521-.228c.228-.076.076.3.076.3-.684.076-1.749 0-1.673.228a1.014 1.014 0 0 1 .38.456s-.152.076-.152.152c-.3-.152-.532-.532-.76-.76-.38-.152-.836 0-1.141-.076-.3 0-.76-.228-1.065-.076-.076.152.836.608.912 1.065-.3.076-.532-.38-.836-.608-.456-.836-1.445-.912-2.205-1.141-.076.076.076.456.076.532 0 0-.228-.076-.228-.152a1.667 1.667 0 0 0-.228-.608c-.228-.152-.38 0-.684-.228l-.456-.152a2.39 2.39 0 0 1 .989.082zm1.521-5.094c.152-.228.076-.76.152-.836l.228-.076c.076.152-.076.532 0 .684a4.312 4.312 0 0 0 .684-.456 3.543 3.543 0 0 0 1.065-1.072 3.137 3.137 0 0 1 .152-2.205c0 .076.152 0 .152.076 0 .608-.456 1.293 0 1.9.608-.228 1.065-.988 1.6-1.369-.076-.3.228-.3.608-.3 0 .152.76.076 1.065.152.076 0 0 .152 0 .228a5.148 5.148 0 0 0-1.448.226l-.532.456-.38.38-.684.532v.076h-.076c-.3.3-.38.532-.684.684a7.393 7.393 0 0 1-1.141.76c-.076.076.608.076.988.076a.265.265 0 0 0 .152-.076v.076a4.844 4.844 0 0 0 .532.152c.152 0-.076.228-.076.228a5.229 5.229 0 0 0-1.825-.228c-.456.076-.608.3-1.065.532-.152.076-.228-.228-.228-.228a1.155 1.155 0 0 0 .761-.379zM72.021 57.4c-.076-.076.076-.3.076-.3a4.87 4.87 0 0 1 .988-1.445c.3.38-.988 1.293.228 1.065.3-.228.836-.228.912-.684-.076-.3.152-.456.228-.684h.076c.152.38-.3.836.228.988.76.076 1.141-.836 1.825-1.065.38.3-.532.532-.076.836.456 0 .76-.076 1.217-.076a2.189 2.189 0 0 1 .988-.076c-.152.3-.608.228-.912.3-.38.152-.912 0-1.141.456a1.26 1.26 0 0 0-.76-.228c-.076.076-1.065 0-1.369.456l.38.532c-.076 0 0 .076-.076.076-.608-.228-1.217-.836-1.9-.38a1.528 1.528 0 0 0-.608.3c0 .228.3.3.456.38l.076.152c-.532 0-.912-.532-1.521-.456.153-.382.381-.002.685-.154zm-7.984-8.6c.076 0 .076-.076.152 0s.152.076.152.152c.152.152.152.38.38.532.228.076.684 0 .836.152a.375.375 0 0 0 .076.228c-.152 0-.988-.152-.76.076.076.228.38.684.456.912s.076.38.3.532c.456.228 1.293.3 1.673.76.152.076 0 .076 0 .152-.38-.076-1.217-.608-1.521-.3a5.138 5.138 0 0 0 .608 1.141c.152.228.228.836.38.912s.532.076.684.152c0 0-.076.152 0 .228-.152 0-.38-.076-.532 0-.3.152.3.3.3.532l-.152.152c-.152 0-.152-.228-.3-.228-.228 0 0 .608-.38.38a2.344 2.344 0 0 0 .076-.76 10.574 10.574 0 0 0-.912-2.357c-.228.076-.228.228-.456.3a.265.265 0 0 1-.076-.152c0-.152.38-.228.3-.532a3.477 3.477 0 0 0-.684-1.521c-.228 0-.456.532-.608.3.076-.228.456-.532.456-.836a3.386 3.386 0 0 1-.448-.907zm11.558.152c.076.076.38-.076.608-.228.076 0 .076.076.152 0-.152.152-.456.3-.152.532.684.152 1.369.988 2.053.38.228-.076.228 0 .3 0-.076.076-.38.228-.456.456a4.622 4.622 0 0 0 1.369.684 3.119 3.119 0 0 0 .836-.076s.3.152 0 .38a.575.575 0 0 0-.3-.076c-.152 0-.3 0-.38.152-.076.076.076.3 0 .38s-.076.076-.152 0-.076-.152-.152-.38c-.38-.532-1.065-.532-1.521-.836-.152 0-.3-.152-.38 0 0 .076 0 .38-.076.456a.265.265 0 0 0-.152-.076c-.152-.076 0-.456-.076-.608-.228-.228-.38-.532-.836-.532-.228-.152-.608-.532-.836-.456-.076.076.152.532.076.532l-.152.076c-.228-.456-.38-.988-.608-1.369.302.078.53.457.835.61zm5.094-3.422a6.446 6.446 0 0 0 1.217 0c.152-.076.152-.228.228-.3h.152c-.152.3.228.38.456.456.532.152.836.228 1.217-.152.152-.152.152 0 .152 0 0 .152-.228.228-.228.38s1.141.456 1.749.608a.668.668 0 0 0 .532.076.419.419 0 0 1 .38-.152.074.074 0 0 1-.076.076c0 .076-.152.152-.152.152.152.3.608.38.3.532-.3.076-.38-.3-.608-.38a3.971 3.971 0 0 0-1.6-.3s0 .38-.076.3.076-.38-.228-.532a6.993 6.993 0 0 0-2.357-.532c-.152.076 0 .152.152.38.228.076.3.456.38.608-.3.076-.3-.228-.532-.3-.152-.076-.228-.38-.456-.532a6.852 6.852 0 0 0-.684-.38zm-.836-4.33l.076-.3c.228.38.38.38.684-.228.076-.38.456-.684.3-1.065a2.554 2.554 0 0 1-.38-1.065c.076-.076.076-.228.152-.152a1.969 1.969 0 0 0 .532.836c.228.076.152-.3.152-.38a6.742 6.742 0 0 0 .456-1.6 20.666 20.666 0 0 0-.836-1.9c.076 0 .152-.076.228-.076.3.228.532 1.141.76 1.217.076 0 .152-.228.152-.38.228-.76.076-1.6.3-2.205l.228-.152c.076.684-.228 1.369-.152 2.129a3.035 3.035 0 0 0 .988-.3c-.076.152 0 .3-.3.456a2.229 2.229 0 0 0-.608.3 2.025 2.025 0 0 0-.3 1.521c-.076.228-.38.684-.3 1.065.532 0 .836-.532 1.369-.608a4.18 4.18 0 0 1-1.293.988 2.575 2.575 0 0 0-.912 1.369c.228.076.3 0 .532.076-.076.228-.38.38-.608.456-.608.152-.76.684-1.141 1.065H79.7c-.076-.385.533-.614.153-1.067zm-4.79-1.9c.152.3.684.076.608.532l.3.228a2.683 2.683 0 0 1-.988.608c.003-.383.079-.992.079-1.368zM72.4 43.1c.152-.228 0-.456.076-.76h.076c.076.076.076.3.228.38a1.477 1.477 0 0 0 .836-.684v-1.219h.152a3.234 3.234 0 0 0 .152.836.77.77 0 0 0 .532-.3c.076-.152.076-.608.152-.608s0 .38.076.532l.608-.152c-.456.3-1.217.532-1.521 1.141 0 .152.152.228.228.3h-.456a2.544 2.544 0 0 0-1.293.912s-.228.228-.3 0a.779.779 0 0 1 .454-.378zm-6.235-8.06c.3.152.456.076.836.076.3-.228.532-.684.912-.836.076 0 .152.228.152.228-.152.228-.608.456-.456.684.456.3.532.228 1.065.3.456-.38 1.293-.912 1.749-1.217.076 0 .38.076.228.228-.38.38-.912.38-1.141.836 0 0-.228.152.076.228a9.352 9.352 0 0 0 2.129-.152c.38-.228.608-.76.836-.684.076.076-.38.532-.3.684.152.152.456-.076.608-.152.3-.076.532-.076.76-.152a4.918 4.918 0 0 0 .988-.3v.152a2.982 2.982 0 0 1-.988.38c-.38.076-.76.076-.912.228-.076.076.076.152.152.3 0 .076-.076 0-.076 0-.152-.076-.228-.228-.38-.3-.38 0-.836.076-1.293.076a6.147 6.147 0 0 1-1.141.076c-.228 0 .228.228.228.456-.076.076-.152.076-.3-.076l-.684-.38c-.38.076-.684-.152-1.065 0a5.023 5.023 0 0 1 .38 1.141h-.152c-.3-.228-.38-.836-.684-1.141a3.445 3.445 0 0 0-1.673-.608c-.157-.077-.081-.077.147-.077zm.456-3.422c.228-.228.608-.38.684-.836-.076-.152 0-.684-.076-.836.076-.228-.076-.456.152-.684l.076-.152a4.45 4.45 0 0 1 .152.988c0 .152 0 .532.152.532a6.294 6.294 0 0 0 1.141-.836 5.665 5.665 0 0 1 .608-2.661c.076-.3.152-.456.228-.76 0 0 .228-.228.152 0-.228.912-.532 1.673-.684 2.433a.451.451 0 0 0 .076.532 4.6 4.6 0 0 0 1.518-1.295 2.025 2.025 0 0 1 .228-.912l.076.076c.076.152-.076.456 0 .532a11.7 11.7 0 0 1 .988-.912l1.141-1.141c.076-.076.228-.076.3-.152 0 0 .456-.152.228.152-.3.456-.76.532-1.141.988a2.368 2.368 0 0 0-.532.684c-.076.152.532.076.76.152.076 0 0 .076 0 .152a2.531 2.531 0 0 0-1.065.076 6.856 6.856 0 0 0-.76.684 2.3 2.3 0 0 0-.608.608c-.152.228 1.217.228 1.749.456v.076a5.444 5.444 0 0 1-1.825-.228c-.684.3-1.293.912-1.977 1.293-.152.152.836.076 1.065.228.076 0-.076.228-.076.3a5.185 5.185 0 0 0-1.445-.152c-.456.076-.684.456-1.293.684.087.006.009.006.009-.07zM61.3 26.75a.164.164 0 0 1 .152.152 3.716 3.716 0 0 0 1.065 1.369c.3 0 .38-1.293.3-1.749-.38-.228-.456-.76-.684-1.065a2.077 2.077 0 0 1-.608-1.445c.38.152.456.684.684.988a9.225 9.225 0 0 0 .76 1.065c.38-.228.152-.76.38-1.065-.076-.228 0-.684-.076-.912-.228-.456-.684-.836-.608-1.369.228-.076.532.836.76.912.152.076.076-.38.152-.76.076 0 .152-.076.152 0a4.968 4.968 0 0 0 0 1.065c.076.152.152 0 .456-.152a1.335 1.335 0 0 1 .38-.3c.076.836-.912.38-.912 1.217.152.152 0 .532-.076.608 0 .38-.38.988-.228 1.445.608-.228 1.217-.912 1.825-1.141-.076.456-.608.684-.912.988a2.521 2.521 0 0 0-1.065.76c0 .228-.3.836-.228 1.065 0 .228.152.228.3.152.38-.076.684-.456 1.065-.456v.228c-.532.456-1.293.532-1.6 1.141-.228.38-.228 1.141-.76 1.293l.076-.38c.228-.152.076-.608.228-.836.771-1.373-1.359-1.601-.978-2.818zm-19.618 4.715c-.836-.228-1.065-.912-1.825-1.217a5.7 5.7 0 0 1-2.281.152h-.456v-.076a3.72 3.72 0 0 1 1.6-.076c.152-.076.38 0 .532-.3-.3-.456-.532-.532-1.141-.912-.152-.228-1.825-.076-2.585-.38.076-.152.3-.076.38-.076a2.354 2.354 0 0 0 1.445-.076c.228-.228-1.141-1.217-1.749-1.673 0 0-.3-.152.076-.076.836.3 1.369 1.065 2.053 1.521 0 0 .608.76.836.228 0-.684-.228-1.141-.228-1.749.3.228.3.608.38.988a8.57 8.57 0 0 0 .228 1.369c.38.456 1.293 1.217 1.369 1.065.3-.38-.076-.988.152-1.521.152.152.152.532.228.836a1.838 1.838 0 0 0 .456 1.521 6.577 6.577 0 0 0 .76.532.279.279 0 0 1-.23-.08zm1.749 3.954c-.684.3-1.825.228-2.053 1.293 0-.076-.076 0-.152-.076-.076-.152.152-.532-.228-.532a2.7 2.7 0 0 0-1.445.608 13.173 13.173 0 0 1-1.445 1.065.519.519 0 0 1-.38.228c-.076.076-.076-.076-.152-.076a9.412 9.412 0 0 1 1.369-1.065c.228-.228.38-.228.532-.456-.076-.228-.228-.228-.684-.152h-1.369a1.83 1.83 0 0 1-1.445.608c0-.076-.076-.076 0-.152.228-.228.912-.076.912-.532a3.644 3.644 0 0 0-1.521-.532 3.178 3.178 0 0 0-.76-.3c.076 0-.456 0-.532-.228.076-.152.38-.152.532-.076 0 0 1.065.38 1.749.684l.38.152a7 7 0 0 0 1.749.152c.38-.152-.38-.76-.228-.684.076 0 .076-.076.076 0 .684.76 1.065.836 1.445.608.228-.076.3-.076.38-.228.076-.3-.38-.532-.456-.836h.152c.532.3 1.141 1.217 1.825.532-.076-.38-.532-.532-.76-.76 0-.076.076 0 .076-.076.76.076.836 1.065 1.977.608.608-.158.456.222.456.222zm3.27-6.007a2.318 2.318 0 0 1 .228 1.217v.152c-.228.076-.152-.38-.3-.532a1.176 1.176 0 0 0-.456-.228c-.076-.076-.152-.076-.076-.152s.38.152.456.076c-.076-.836-.608-1.521-.684-2.281a6.31 6.31 0 0 1-2.205-1.825c-.076-.228.152-.456.3-.3.456.532.76 1.141 1.445 1.369.456-.38.152-.836.228-1.521a.8.8 0 0 0-.836-.608 1.528 1.528 0 0 1-.3-.608c.3-.076.608.684.912.228.152-.608-.228-1.141-.228-1.673-.228-.38 0-.836-.228-1.293.3.152.3.608.532.912a13.483 13.483 0 0 1 .38 2.433s0 .684.152.152c.3-.152.608-.836.608-.836h.228c-.076.988-1.141.988-.912 2.889a1.467 1.467 0 0 0 .228.76c.152.076.3.38.456.152.3-.3.3-.912.76-1.065-.004.909-.989 1.213-.689 2.582zM36.664 43.858c-.3-.152-.76-.76-.988-.912a14.614 14.614 0 0 1-1.825 0v-.228c.456-.152 1.521-.076 1.445-.152a3.658 3.658 0 0 0-.684-.836c0-.076-.532.152-.836.152l.076-.228c.076-.076.456-.076.608-.152a4.893 4.893 0 0 0-.912-1.141c-.3-.152-.608 0-.836-.228a.576.576 0 0 1 .152-.3c.152.076.532.076.76.152a12.116 12.116 0 0 1 .988.988c.152-.532 0-.988.152-1.369h.152a13.408 13.408 0 0 1 0 1.749c0 .228.152.228.456.608.228.228.532.836.76.912.076 0 0-.152 0-.38s-.076-.38-.076-.608c0 .076.152.076.228.076.076.38.076.836.152 1.217.152.152.228.38.38.532-.076.072-.076.148-.152.148zm-7.147-.608a4.9 4.9 0 0 0-.836-1.217c-.228-.3-.456-.608-.608-.836-.3-.076-.532-.152-.836-.228a.815.815 0 0 1-.456-.152v-.152c.3-.152.684.228 1.141.152-.152-.38-.38-.76-.532-1.141-.912-.076-1.521-.912-2.053-1.369-.152 0 0-.228 0-.228.532.228 1.141 1.293 1.825 1.217a6 6 0 0 0-.532-1.749c-.228-.38-.912-.76-.988-1.141a.074.074 0 0 0 .076-.076c.228.152.532.532.684.456s-.152-1.217-.076-1.445l.076-.076c.3.456.3 1.673.532 1.825.228.076.38-.76.608-.988.076-.076.076 0 .152 0a12.406 12.406 0 0 1-.684 1.445s0 .38.076.456c.152.532.3.836.456 1.293.152.228.456-.38.456-.38 0 .076.076.076.076.152-.076.3-.228.38-.3.76a5.383 5.383 0 0 0 .912 1.521c.076 0 .152-.456.228-.456h.076c0 .228-.076.608-.076.912l.684 1.445c.146.15-.006.076-.082 0zm-.152 2.813a14.034 14.034 0 0 0-1.749.3 2.893 2.893 0 0 0-.684.988H26.7c0-.152.456-.608.532-.912-.152-.228-.456.076-.76.152a4.847 4.847 0 0 1-.684.152 8.332 8.332 0 0 1-1.673 1.6c-.152.152-.3.38-.456.532 0 0-.152.152-.228 0 .076-.3.3-.456.456-.684a13.593 13.593 0 0 1 1.065-.988c.076-.152.38-.228.228-.38a12.155 12.155 0 0 1-1.6.38 2.858 2.858 0 0 0-1.141 1.369c-.152.076-.152.152-.38.076.38-.608.836-1.065.76-1.217-.152-.152-2.205.684-2.965.76-.076 0-.076-.076.076-.152a15.482 15.482 0 0 1 1.673-.684c.836-.228 1.977-.228 2.205-.532.076-.152-.152-.228-.228-.228l-1.369-.3v-.076h.456l.988.228c.3.152.532.3.836.228.608-.076 1.749-.228 1.825-.456-.076-.3-1.445-.532-1.977-.684l.076-.152a11.317 11.317 0 0 1 2.281.684c.608 0 1.521-.228 2.053-.228h1.217c.007.453-.298.225-.602.225zm4.486 3.574c-.228.152-.152.3-.228.608-.076.228-.152.456-.3.532-.152-.228.228-.608.076-.836l-1.141.684a4.483 4.483 0 0 1-.912 1.673h-.152a2.809 2.809 0 0 1 .532-1.065c0-.152.38-.38.152-.608-.228-.152-1.369.456-1.749.684-.38.456-.456 1.369-1.141 1.369v-.152a1.656 1.656 0 0 0 .532-.684c-.228-.532-.608-.076-1.065.076l-.836.228c.076-.3.38-.3.608-.456.3-.152.608-.076.684-.228.152-.076-.3-.532-.3-.532.076 0 .076-.076.152-.076.228.152.456.532.912.228a12.406 12.406 0 0 0 1.445-.684c-.38-.456-1.293-.38-1.825-.532-.076 0 0-.076-.076-.152a7.325 7.325 0 0 1 1.293 0 7.136 7.136 0 0 1 1.141.456.884.884 0 0 0 .76-.152l.456-.228s.836-.38.76-.532c-.152-.152-.456-.152-.684-.228-.076 0 0-.076 0-.152a1.665 1.665 0 0 0 1.825-.38h.152a2.245 2.245 0 0 1-1.072 1.139zm10.721.3c.076.152.228.608.152.532-.152-.076-.228-.38-.38-.228a4.52 4.52 0 0 0-.456 1.217 4.679 4.679 0 0 1 .228 1.369c-.38.076-.076-.608-.38-.836-.152 0-.228.228-.3.38a2.605 2.605 0 0 1-.38.912.605.605 0 0 0 .152.684v.152c-.228-.076-.38-.152-.532.076a9.084 9.084 0 0 1-.836 1.977c-.076.076-.076-.076-.076 0 .076-.38.228-.836.38-1.369-.152-.228-.608.152-.608.152l-.152-.076c.228-.228.608-.38.912-.684a8.311 8.311 0 0 0 .608-1.141c.456-1.065.152-.684-.076-.76-.608.076-.988.988-1.369.684.684-.912 2.205-.988 2.205-2.357-.152-.228-.456-.152-.608-.076v-.076c.228-.152.608-.152.836-.3A4.848 4.848 0 0 0 44.5 49.1c.3-.228.3-.76.684-.836-.004.613-.536 1.221-.612 1.677zm-6.387 8.212a5.234 5.234 0 0 0-1.9.152l-.076-.076c.228-.228.988-.152 1.293-.38a16.513 16.513 0 0 0-1.825-.532 9.305 9.305 0 0 0-1.749.76c-.228.076-.152-.152-.152-.152a9.463 9.463 0 0 0 1.521-.76c-1.445-.684-1.521 0-2.357.152-.152.076-.076-.076-.076-.076.152-.152.684-.228.608-.456a6.654 6.654 0 0 0-1.825-.228c.076-.076-.3-.228 0-.3s1.065.228 1.369.152c-.3-.228-.3-.456-.228-.38.456.076.76.532 1.217.608 0 0 .76.228 1.217.3-.152-.38-.456-.76-.608-1.141-.152-.076-.152-.228 0-.38.456.532.76 1.217 1.217 1.673a6.422 6.422 0 0 0 1.293.38c.456.228.988.3 1.217.684h-.152zm-10.113 1.525c-.3-.152-.76-.456-1.141-.684-.988-.836-1.293.228-2.509 0v-.3c.456-.076.988.076 1.293-.38-.456-.988-1.521-.38-2.281-.456a7.933 7.933 0 0 1-1.6-.38v-.3a5.357 5.357 0 0 0 2.205.3l.456-.076a2.729 2.729 0 0 0-1.977-1.065 5.227 5.227 0 0 1-1.825-.38l-.076-.3c.38.076.684.228 1.065.3a1.483 1.483 0 0 0 .988.076 1.634 1.634 0 0 0-.684-.988c-.684-.608-1.673-1.293-2.053-1.673-.152-.152.076-.456.076-.152a13.048 13.048 0 0 1 2.132 1.284c.912.836 1.673 1.977 1.6 1.673.228-.228.076-.608.152-.76 0 .076.228-.076.3 0a6.54 6.54 0 0 1-.076 1.217c.456.38.836.836 1.369.836.3-.456.152-.76.3-1.217 0 .076.228.076.228.152.152.608-.608 1.6.38 1.9a8.956 8.956 0 0 1 1.9 1.445c-.146-.146-.146.004-.222-.072zm1.216 3.726c-.684.3-1.9.3-2.357 1.141-.228.228-.38.76-.608.608.152-.3.608-.912.456-.988-.076-.228-.912-.076-1.217.076-.38.38-.608.912-1.141.912.076-.152.532-.456.38-.532 0-.228-1.293 0-1.9.228-.228.076-.076.608-.38.456a.642.642 0 0 0-.152-.532l-.76-.076v-.076c.608-.152 1.293.076 1.825-.3.076-.152-.228-.38-.38-.456-.076-.076 0-.076 0-.076.076-.076.3.228.608.38a1.273 1.273 0 0 0 1.369 0c.228-.076 0-.076-.152-.152-.228 0 0-.152 0-.152.684.152 2.053.228 1.9-.228a2.047 2.047 0 0 0-.532-.456c-.076-.076-.228-.228-.152-.3.532.38 1.217 1.065 1.369.836.532-.228 1.217-.3 1.673-.456.151.067.303.067.151.143zm4.486 3.5l-.3 1.6c-.3 0 .076-.532-.152-.912a2.552 2.552 0 0 0-1.445 2.129l-.152.152c-.152-.076 0-.76 0-.912 0-.076-.152.3-.3.3-.152.076-.228.38-.608.38-.3.38-.228.988-.532 1.445h-.152c-.076-.228.38-.456 0-.684l-.684.3c.152-.3.912-.532.912-.836 0-.076-.228-.076-.3-.152l-.152-.076a2.869 2.869 0 0 0 1.217-.38s.988-.912.836-1.141c-.532-.076-1.369.152-2.053.152 0-.228.532-.3.76-.38.988-.152 2.129-.076 2.661-.912-.228-.456-1.673 0-1.977-.076v-.228c.532-.228 1.293-.152 1.825-.456.76.152 1.293-1.141 1.825-1.521.076 0 .228-.076.3 0zm11.786-3.044c-.532.38-.076.684-.3 1.217-.076.38.532.38.228 1.065a.074.074 0 0 1-.076.076c-.152-.076-.228-.456-.38-.38s-.228.532-.3.608a4.45 4.45 0 0 0-.152.988 2.168 2.168 0 0 0-.608 1.065c-.456-.152-.076-.456.152-.836 0-.228.38-.532.152-.76-.076-.152-.456.076-.3-.228a.906.906 0 0 1 .456-.152c.076-.38.836-1.445.38-1.673-.152.3-.456.152-.532.152.3-.38.912-.684.76-1.369-.076-.228-.3.076-.456.076-.076 0-.152-.076-.228-.076.3-.228 1.065-.608 1.217-1.065l.076.076c-.013.532-.317.836-.089 1.216zm9.048-34.292c-.228 0-.152-.228-.228-.3l-.08-1.221c-.3-.532-.988-.3-1.065-.988.38 0 .912.608 1.141.228a4.018 4.018 0 0 0-.076-.912c0-.228-.228-.38-.456-.456-.38-.532-1.369-.912-1.217-1.749a.851.851 0 0 1 .532.608c.152.152.684.608.684.76 0 .076.228.228.38-.3a4.378 4.378 0 0 0-.076-1.141c-.38-.532-1.065-.836-.912-1.521.456-.076 1.065 1.825 1.065.456.076-.912 0-1.825 0-2.737h.152c.3.532.152.836.228 1.521v.684a.594.594 0 0 0 0 .38c.3-.076.76-.836 1.141-.988a.5.5 0 0 1-.076.456c-.532.608-1.445 1.065-1.141 1.977 0 0-.076.456.076.532.38-.076.76-.38 1.141-.456-.076.532-.684.532-1.065.912-.3.152-.152.38-.228.76.076.3-.076.836.3.532.152-.152.3-.456.532-.456.076.076 0 .152.076.228a1.2 1.2 0 0 0-.076.3 1.963 1.963 0 0 0-.684.684 5.755 5.755 0 0 1-.076 1.141c.076.152.228-.228.38-.228.161.457-.524.761-.372 1.294z" class="cls-1" data-name="Path 3" transform="translate(-4.448 -4.395)"/>
        <path id="Path_4" d="M75.3 47.277a2.265 2.265 0 0 0 1.369 1.141 1.647 1.647 0 0 0 1.673 0c.456-.152.456-.608.456-1.065a2.1 2.1 0 0 0-.76-2.053c-.305.228-2.206 1.6-2.738 1.977z" class="cls-1" data-name="Path 4" transform="translate(-18.068 -10.855)"/>
        <path id="Path_5" d="M44.153 85.037a2.155 2.155 0 0 0 1.977-.912 2.358 2.358 0 0 0 .684-1.521 15.746 15.746 0 0 1-3.65-.3 2.49 2.49 0 0 0 .989 2.733z" class="cls-1" data-name="Path 5" transform="translate(-10.341 -19.721)"/>
        <path id="Path_6" d="M42.852 63.813a2.236 2.236 0 0 0 1.673-.684c.228-.38.76-.912.38-1.293A21.647 21.647 0 0 1 41.94 61c-.3.076-.38.3-.456.532-.152.152.076.836.076.836 0 .609.684 1.217 1.292 1.445z" class="cls-1" data-name="Path 6" transform="translate(-9.952 -14.617)"/>
        <path id="Path_7" d="M53.686 48.77s1.217-.456 1.369-1.369a1.738 1.738 0 0 0-.76-.532 16.079 16.079 0 0 0-1.826-1.369c-.456 0-.608.608-.608.988a2.226 2.226 0 0 0 .152 1.825 1.412 1.412 0 0 0 1.673.457z" class="cls-1" data-name="Path 7" transform="translate(-12.422 -10.903)"/>
        <path id="Path_8" d="M37.569 7.47c1.369 2.281 3.65 7.908 4.182 8.82 1.065-.532 5.018-1.977 5.779-2.357a20.243 20.243 0 0 0-.228-2.965c-.076 0-.152 0-.152.076 0 1.673-1.825 2.889-3.346 3.27-.988.152-1.217.076-1.445-.456s-2.813-6.54-3.042-7.148c-.228-.532-.456-.988-.608-.912-.76.3-2.509 1.217-2.509 1.217l.076.152a1.167 1.167 0 0 1 1.293.303z" class="cls-1" data-name="Path 8" transform="translate(-8.699 -1.387)"/>
        <path id="Path_9" d="M74.726 10.385a3.03 3.03 0 0 0 2.433 1.9 7.863 7.863 0 0 0 3.27-.228 1.843 1.843 0 0 1 0 .684 6.248 6.248 0 0 0 1.9.836c0-.076.076-.076 0-.152a1.4 1.4 0 0 1-.228-1.445c.684-2.889 1.825-5.931 2.509-8.668a6.956 6.956 0 0 0-2.585-.76v.152A1.064 1.064 0 0 1 82.558 4c-.608 2.053-.836 3.27-1.369 5.094-.38 1.065-.228 1.9-1.217 2.357a2.847 2.847 0 0 1-2.965-.456 3.955 3.955 0 0 1-.608-3.65c.076-.38.836-4.638.988-5.475.076-.38.228-.608-.38-.836C76.323.88 75.487.576 74.8.5v.152c.684.532.988.76.836 1.445-.073.684-1.746 6.083-.91 8.288z" class="cls-1" data-name="Path 9" transform="translate(-17.875 -.119)"/>
        <path id="Path_10" d="M48.124 4.962a3.318 3.318 0 0 1 .988-1.749 3.475 3.475 0 0 1 1.521-.836 1.21 1.21 0 0 1 .684-.076c.152.76 1.673 7.832 1.825 9.048.076.3.076.684.532.608.684-.152 1.977-.3 2.737-.456v-.152a1.9 1.9 0 0 1-1.749-1.065c-.532-1.977-.912-4.106-1.369-6.159a10.321 10.321 0 0 1-.3-2.053c.076-.228 2.053-.836 2.737-.228.38.38.3.608.38 1.065h.228c.076-.76.3-1.521.38-2.509-.684.076-.912.076-1.369.152-.686.076-6.085 1.217-6.921 1.448-.684.532-.532 2.129-.532 3.041z" class="cls-1" data-name="Path 10" transform="translate(-11.498 -.095)"/>
        <path id="Path_11" d="M22.545 16.538c.456.456 3.422 5.247 5.627 6.007a2.943 2.943 0 0 0 2.965-.684 7.426 7.426 0 0 0 1.9-2.737 2.3 2.3 0 0 1 .532.38 5.708 5.708 0 0 0 1.9-.988c-.076-.076 0-.076-.076-.152a1.235 1.235 0 0 1-1.217-.76c-1.673-2.357-3.194-5.247-4.79-7.6a9.8 9.8 0 0 0-2.281 1.521l.076.076a1 1 0 0 1 1.293.456c1.141 1.825 1.9 2.737 2.965 4.334.532.988 1.293 1.369.988 2.433a3.017 3.017 0 0 1-2.205 2.053 3.2 3.2 0 0 1-3.041-1.749c-.228-.3-2.889-3.65-3.422-4.334-.228-.3-.3-.608-.836-.228a16.926 16.926 0 0 0-1.823 1.44l.076.152c.608-.076.989-.152 1.369.38z" class="cls-1" data-name="Path 11" transform="translate(-5.08 -2.395)"/>
        <path id="Path_12" d="M61.365 1.445A3.894 3.894 0 0 1 63.8.837c.228.076.3.456.3.912.076.988 0 7.376.076 8.744 0 0 0 .228.152.228.684.076 1.9.152 2.661.152v-.152c-.228-.076-.988-.38-.988-.836-.152-2.585-.3-8.592 0-8.972a3.5 3.5 0 0 1 1.977 0c.836.228.684.836.684 1.521h.228a6.521 6.521 0 0 0 .76-2.281c-.456.076-6.007-.3-8.592-.076-.456.152-.38.684-.532 1.065a9.507 9.507 0 0 0-.226 1.444c0 .076.152 0 .152.076a2.867 2.867 0 0 1 .913-1.217z" class="cls-1" data-name="Path 12" transform="translate(-14.474)"/>
        <path id="Path_13" d="M110.617 36.872l.152-.076s-.152-.836 0-.912a22.092 22.092 0 0 1 2.053-1.6c1.825-1.369 3.878-2.813 5.7-4.258-.456-.76-.912-1.521-1.369-2.129H117a1.616 1.616 0 0 1-.152 1.217 8.475 8.475 0 0 1-1.673 1.369c-1.217.988-5.17 3.574-5.779 4.258z" class="cls-1" data-name="Path 13" transform="translate(-26.24 -6.685)"/>
        <path id="Path_14" d="M127.71 68.7h-.152c-.152.38-.3 1.065-1.217.988a244.819 244.819 0 0 1-8.516-.912c-.3 0-.456 1.673-.532 2.357h.152a1.089 1.089 0 0 1 .76-.684 3.664 3.664 0 0 1 .912 0c.836.152 2.585.38 3.194.456-.152 1.6-.456 3.5-.76 5.247-.836-.076-3.878-.608-4.79-.76-.38-.076-.532 1.6-.76 2.357.076-.076.152.076.228 0a.955.955 0 0 1 .76-.532 3.612 3.612 0 0 1 1.521.152c2.509.3 7.6 1.521 7.68 1.445.228 0 .532-1.9.532-2.585 0-.076-.152 0-.152 0-.152.532-.38.836-1.141.684-1.064-.228-2.129-.3-3.117-.608.152-1.065.76-5.247.76-5.247 1.369.152 3.041.3 4.182.456.228-.001.532-2.358.456-2.814z" class="cls-1" data-name="Path 14" transform="translate(-27.822 -16.462)"/>
        <path id="Path_15" d="M106.455 17.325c-.608.988-4.866 5.931-5.855 6.919a10.976 10.976 0 0 0 1.9 1.749c0-.076.076-.076.076-.152a7.014 7.014 0 0 1-.38-.608c-.076-.988 1.445-2.281 2.357-3.194a9.937 9.937 0 0 1 .912.836c-.3 1.673-.608 3.194-.76 4.942 0 1.065 1.141 1.9 1.673 2.661l.152-.152c-.076-.456-.38-.684-.3-1.521a25 25 0 0 1 .38-4.106c.152-.456.076-.532.38-.608a4.062 4.062 0 0 0 1.9.076 3.44 3.44 0 0 0 1.9-1.825 2.737 2.737 0 0 0 0-2.433 2.848 2.848 0 0 0-.532-.912c-.912-.912-3.5-3.194-3.878-3.5l-.228.152a1.467 1.467 0 0 1 .303 1.676zm2.509 1.521a2.283 2.283 0 0 1 .836 2.129c-.228.912-.684 1.141-1.293 1.749a1.581 1.581 0 0 1-1.673.076 2.829 2.829 0 0 1-1.521-1.445 30.649 30.649 0 0 1 1.977-2.433c.457-.685 1.142-.533 1.674-.076z" class="cls-1" data-name="Path 15" transform="translate(-24.131 -3.714)"/>
        <path id="Path_16" d="M122.842 87.935c-.3.608-.912.836-1.293.456-1.369-1.369-2.585-2.509-3.878-3.878a17.81 17.81 0 0 0-3.041-2.813c-.532.912-.912 1.521-1.293 2.205l.228.076c.456-.3.988-.912 1.749-.3a10.259 10.259 0 0 1 1.749 1.673c-.456 1.065-.912 1.9-1.521 3.118-1.217 0-2.357.076-3.8.076-.3 0-.456.38-.456.38a15.719 15.719 0 0 0-.684 1.825l.152.076c.3-.38.456-.456 1.065-.456 2.433-.076 4.714-.076 7.223 0 1.141 0 2.965.228 3.194-.3.076-.3.684-1.445.836-1.977-.078-.161-.23-.085-.23-.161zm-6.311.608c.228-.608.76-1.673 1.141-2.585a16.339 16.339 0 0 1 2.509 2.585 28.513 28.513 0 0 1-3.65 0z" class="cls-1" data-name="Path 16" transform="translate(-26.528 -19.577)"/>
        <path id="Path_17" d="M89.3 15a3.134 3.134 0 0 0 1.825 2.509 7.782 7.782 0 0 0 3.194.684 1.573 1.573 0 0 1-.152.608 5.632 5.632 0 0 0 1.6 1.369c0-.076.076-.076.076-.152a1.427 1.427 0 0 1 .152-1.445c1.369-2.585 3.346-5.17 4.79-7.6A8.418 8.418 0 0 0 98.5 9.454l-.076.076a1.131 1.131 0 0 1 .152 1.445c-1.141 1.825-1.673 2.889-2.661 4.562-.608.912-.684 1.749-1.749 1.9a2.925 2.925 0 0 1-2.737-1.293 3.373 3.373 0 0 1 .3-3.574c.152-.3 2.053-4.182 2.433-5.018.152-.3.38-.532-.152-.912-.61-.38-1.368-.84-1.977-1.14l-.076.152c.532.684.684 1.065.38 1.6-.227.681-3.269 5.319-3.037 7.748z" class="cls-1" data-name="Path 17" transform="translate(-21.419 -1.317)"/>
        <path id="Path_18" d="M113.888 43.308l.152-.076a2.346 2.346 0 0 1-.076-.684c.3-.912 2.205-1.521 3.422-1.977a3.851 3.851 0 0 1 .532 1.141 48.847 48.847 0 0 0-2.585 4.258c-.456.988.3 2.205.532 3.117l.228-.076a3.307 3.307 0 0 1 .3-1.521 26.588 26.588 0 0 1 1.9-3.574c.3-.38.3-.456.532-.456a4.809 4.809 0 0 0 1.749.912 3.587 3.587 0 0 0 2.433-.912 2.676 2.676 0 0 0 .912-2.205 5.966 5.966 0 0 0-.152-1.065c-.456-1.217-1.977-4.334-2.205-4.79l-.228.076a1.435 1.435 0 0 1-.456 1.445c-.912.684-6.767 3.422-7.984 4.03a8.259 8.259 0 0 0 .994 2.357zm7.071-4.638c.76-.38 1.217.076 1.521.684a2.1 2.1 0 0 1 0 2.205 3.018 3.018 0 0 1-1.825 1.065 1.606 1.606 0 0 1-1.6-.532 3.828 3.828 0 0 1-.836-1.977c.84-.533 1.904-.915 2.741-1.445z" class="cls-1" data-name="Path 18" transform="translate(-27.079 -8.482)"/>
        <path id="Path_19" d="M41.241 115.592a3.257 3.257 0 0 0-.3 3.574 2.624 2.624 0 0 0 .684.608 8.541 8.541 0 0 1 2.357 1.673 2.384 2.384 0 0 1-.38 2.433 2.01 2.01 0 0 1-2.053.456c-1.141-.456-2.509-.988-2.205-2.509-.076-.076-.076-.152-.152-.152a13 13 0 0 0-.988 1.749 12.273 12.273 0 0 0 2.813 1.521 3.939 3.939 0 0 0 3.422-.3 4.014 4.014 0 0 0 1.521-2.813 2.471 2.471 0 0 0-.532-1.293c-.836-.988-2.205-1.521-2.965-2.585a1.854 1.854 0 0 1 .3-2.205c.152-.152.3-.608 1.9-.608a2.906 2.906 0 0 1 2.509 1.977v.912c0 .076.152.076.228.076a10.147 10.147 0 0 0 .912-2.205c-.912-.3-2.509-1.6-3.8-1.521a3.419 3.419 0 0 0-3.271 1.212z" class="cls-1" data-name="Path 19" transform="translate(-9.178 -27.389)"/>
        <path id="Path_20" d="M31.46 117.606c.3-.608 3.954-4.866 4.03-7.223a3.051 3.051 0 0 0-1.521-2.737 7.731 7.731 0 0 0-3.118-1.141 3.449 3.449 0 0 1 .228-.608 6.861 6.861 0 0 0-1.445-1.6c0 .076-.076.076-.076.152a1.492 1.492 0 0 1-.38 1.445c-1.749 2.357-3.954 4.638-5.779 6.843a7.1 7.1 0 0 0 2.053 1.825l.076-.076a1.237 1.237 0 0 1 0-1.445c1.369-1.673 2.053-2.661 3.27-4.106.76-.836.912-1.673 2.053-1.6a2.891 2.891 0 0 1 2.585 1.673 3.309 3.309 0 0 1-.76 3.5c-.228.3-2.585 3.878-3.118 4.638-.228.3-.456.532 0 .912a14.27 14.27 0 0 0 1.825 1.369l.076-.076c-.227-.832-.379-1.212.001-1.745z" class="cls-1" data-name="Path 20" transform="translate(-5.631 -24.993)"/>
        <path id="Path_21" d="M113.149 98.682a2.09 2.09 0 0 0-1.369.076c-1.217.532-2.053 1.749-3.27 2.129-.836.228-1.445-.3-1.977-.988-.076-.228-.456-.456 0-2.053a2.925 2.925 0 0 1 2.585-1.9 5.775 5.775 0 0 1 .836.3c.076 0 .076-.152.152-.152a12.484 12.484 0 0 0-1.749-1.6c-.532.76-2.205 1.977-2.585 3.27a3.706 3.706 0 0 0 .152 3.574 2.95 2.95 0 0 0 3.194 1.369 2.531 2.531 0 0 0 .76-.456 10.821 10.821 0 0 1 2.281-1.825 2.1 2.1 0 0 1 2.129 1.141 1.977 1.977 0 0 1-.228 2.129c-.76.988-1.673 2.129-3.041 1.369-.076.076-.152 0-.152.076a11.688 11.688 0 0 0 1.293 1.445 12.9 12.9 0 0 0 2.281-2.281 4.014 4.014 0 0 0 .76-3.422 4.116 4.116 0 0 0-2.052-2.201z" class="cls-1" data-name="Path 21" transform="translate(-25.274 -22.645)"/>
        <path id="Path_22" d="M12.221 28.628c.912.836 5.931 4.106 7.223 5.247.152.076.228.152.3.152a16.922 16.922 0 0 0 1.977-2.053l-.152-.3a1.54 1.54 0 0 1-1.065.3 2.138 2.138 0 0 1-.836-.38 19.163 19.163 0 0 1-2.509-1.825 1.482 1.482 0 0 1 .076-.608c1.9 0 6.007-.076 6.539-.228a9.74 9.74 0 0 0 1.826-2.054l-.228-.152a2.369 2.369 0 0 1-1.369.532c-2.433.3-5.855.152-5.931.228a1.151 1.151 0 0 1-1.065-.532c-.152-1.521-.152-2.053-.3-3.5a12.8 12.8 0 0 0-.3-2.357 13.1 13.1 0 0 0-1.825 2.205l.076.152c.3-.076.912-.228 1.065.456a35.776 35.776 0 0 1 .38 5.17c-.684-.456-3.118-2.129-4.03-2.585A10.34 10.34 0 0 0 10.7 28.4l.152.076a1.167 1.167 0 0 1 1.369.152z" class="cls-1" data-name="Path 22" transform="translate(-2.588 -5.056)"/>
        <path id="Path_23" d="M106.437 109.363a3.6 3.6 0 0 1-.684 2.813c-.608.532-.836.988-1.445.912-1.065-.988-5.018-6.463-5.247-6.691a.559.559 0 0 0-.608-.3l-2.053 1.67.076.076c.3-.152.76-.38 1.065 0 1.6 1.065 2.737 3.041 3.954 4.638.38.76 1.293 1.293 1.217 2.205a2.722 2.722 0 0 1-2.053 1.141 1.259 1.259 0 0 1-.988-.76c-.076-.076-.152.076-.228.076a8.571 8.571 0 0 0 .836 2.509 88.184 88.184 0 0 0 7.223-5.7 6.423 6.423 0 0 0-.988-2.509z" class="cls-1" data-name="Path 23" transform="translate(-23.125 -25.418)"/>
        <path id="Path_24" d="M2.093 52.069c1.6.38 3.041.684 4.41.912.684.076 3.878.912 4.866.988.38-.836.608-1.825.836-2.433l-.152-.152a1.828 1.828 0 0 1-1.369 1.141 7.739 7.739 0 0 1-2.284-.076 44.842 44.842 0 0 1-4.638-1.141c.532-.3 6.311-3.422 7.3-4.03a32.632 32.632 0 0 0 3.117-2.129c-.684-.456-4.866-1.977-4.866-1.977A38.4 38.4 0 0 0 4.07 41.5s-1.217 2.433-1.217 2.585c0 .076.076.076.152.152a3.189 3.189 0 0 1 1.673-1.217 7.3 7.3 0 0 1 3.117.532A27.249 27.249 0 0 1 11.293 45a84.475 84.475 0 0 0-4.866 2.813C3.994 49.484 1.484 50.4 1.332 50.7a8.216 8.216 0 0 0-.3 1.293c-.076.38-.152.684-.228 1.065h.148c.38-.458.684-.989 1.141-.989z" class="cls-1" data-name="Path 24" transform="translate(-.216 -9.944)"/>
        <path id="Path_25" d="M1.573 67.728c2.053-.076 6.235-.38 6.767-.228a10.506 10.506 0 0 0 2.66-.229 9.294 9.294 0 0 0 .152-2.509c.076-1.065 0-1.6 0-2.509 0-.608.076-1.065-.152-1.293a8.445 8.445 0 0 0-2.2-.76v.228c1.749 1.065 1.445 3.346 1.445 5.17-.076.3-.3.228-.456.3a28.936 28.936 0 0 1-3.65.076.333.333 0 0 1-.3-.228c-.456-1.141-.3-3.346.228-3.574A3.731 3.731 0 0 1 6.9 62.1v-.228a12.308 12.308 0 0 0-1.3-.455c-.456-.152-.684-.456-.912 0 0 1.217-.228 3.041-.152 4.41a7.613 7.613 0 0 1-2.965.228l-.532-.076c-.3-.3-.152-.988-.152-1.369.076-1.521-.076-2.205.532-2.889a1.7 1.7 0 0 1 .988-.228l.076-.228a18.364 18.364 0 0 0-1.975-.685c-.3.076-.3.3-.3.3l-.156 3.35c-.152 1.521 0 1.445-.152 3.041a9.2 9.2 0 0 0 .076 1.445l.228.076a1.684 1.684 0 0 1 1.369-1.064z" class="cls-1" data-name="Path 25" transform="translate(0 -14.425)"/>
        <path id="Path_26" d="M15.427 85.782a11.11 11.11 0 0 0-.912-2.813l-.228.076c.152.836 0 1.977-.988 2.281a32.317 32.317 0 0 1-6.539 1.9 6.607 6.607 0 0 1 1.216-1.976s2.965-3.574 4.562-5.094c.076-.076 0-.228-.076-.3-2.281-.456-7.224-1.449-8.288-1.756a14.058 14.058 0 0 0 1.749-.684c1.9-.684 3.422-1.217 5.247-1.9.836-.3.608-.76.38-1.673-.076-.608-.152-1.141-.228-1.445h-.152a2.79 2.79 0 0 1-1.445 1.749c-1.217.608-2.737.988-4.106 1.6-.76.228-1.521.608-2.281.836a2.586 2.586 0 0 1-2.509-.76L.6 75.9a18.952 18.952 0 0 0 .836 3.041c2.813.456 5.247.76 7.832 1.293.38.076.456.228.228.532-.3.38-3.041 3.574-4.334 5.323-.228.38-.532.684-.76 1.065a13.119 13.119 0 0 0 .988 3.117l.152-.076c0-.684.076-1.141.532-1.445.836-.3 3.27-.836 4.182-1.293 1.749-.686 3.574-.99 5.171-1.675z" class="cls-1" data-name="Path 26" transform="translate(-.168 -17.349)"/>
        <path id="Path_27" d="M88.321 111.886a5.961 5.961 0 0 0-5.17 3.422 6.149 6.149 0 0 0 .076 6.159 4.172 4.172 0 0 0 3.65 2.357c4.866-.38 5.475-2.889 6.159-3.726a6.3 6.3 0 0 0-.456-5.7c-.989-1.524-2.434-2.816-4.259-2.512zm2.433 9.657a5.33 5.33 0 0 1-4.79.3 5.511 5.511 0 0 1-2.129-3.27 5.32 5.32 0 0 1 0-2.889 3.789 3.789 0 0 1 2.433-2.129 6.7 6.7 0 0 1 1.673-.228 3.355 3.355 0 0 1 2.433 1.141 10.513 10.513 0 0 1 1.9 3.8 3.35 3.35 0 0 1-1.52 3.275z" class="cls-1" data-name="Path 27" transform="translate(-19.76 -26.8)"/>
        <path id="Path_28" d="M117.138 54.4c-.228.076-.228.38-.152.608.076.456.152 1.445.228 2.281h.152c.152-.608.456-1.445 1.217-1.445.76-.076 2.281.152 2.281.532.076.912.152 2.205.152 3.346a20.051 20.051 0 0 1-2.661 1.749c-1.065.684-.684 1.9-.532 2.965a.3.3 0 0 0 .3-.3.559.559 0 0 1 .152-.456c.836-.684 2.357-1.673 2.357-1.673.38-.228 2.965-1.825 4.41-2.509.912-.456 2.509-1.521 2.509-1.521-.152-.912-.152-1.6-.3-2.357h-.228a.457.457 0 0 1-.076.3c-.152.608-.76.532-1.217.532-2.129-.532-6.615-1.445-6.615-1.445a5.472 5.472 0 0 0-1.977-.607zm8.592 2.661c-.532.3-1.141.76-1.9 1.141-.684.38-1.065.608-1.9 1.141-.076-.836-.228-2.129-.3-3.118.678.152 3.035.532 4.1.836z" class="cls-1" data-name="Path 28" transform="translate(-28.047 -13.035)"/>
        <path id="Path_29" d="M69.769 119.329a2.054 2.054 0 1 0-4.106 0v.76h-2.357v-.76a2.054 2.054 0 1 0-4.106 0 2.062 2.062 0 0 0 2.053 2.129h.76v2.357h-.76a2.13 2.13 0 1 0 2.053 2.129v-.76h2.357v.76a2.054 2.054 0 1 0 2.053-2.129h-.76v-2.357h.76a2.11 2.11 0 0 0 2.053-2.129zm-8.516.76a.762.762 0 0 1-.76-.76.718.718 0 0 1 .76-.76.818.818 0 0 1 .76.76v.76zm.76 5.855a.718.718 0 0 1-.76.76.762.762 0 0 1-.76-.76.718.718 0 0 1 .76-.76h.76zm3.574-2.129h-2.281v-2.357h2.281zm1.369 1.369h.76a.762.762 0 0 1 .76.76.718.718 0 0 1-.76.76.762.762 0 0 1-.76-.76zm0-5.855a.718.718 0 0 1 .76-.76.818.818 0 0 1 .76.76.762.762 0 0 1-.76.76h-.76z" class="cls-1" data-name="Path 29" transform="translate(-14.21 -28.084)"/>
        <path id="Path_30" d="M23.74 98.846a6.192 6.192 0 0 0-4.714-4.106 5.527 5.527 0 0 0-5.627 1.9 4.669 4.669 0 0 0-1.141 4.258c1.825 4.714 4.334 4.562 5.247 4.942a5.983 5.983 0 0 0 5.17-2.129 4.427 4.427 0 0 0 1.065-4.865zm-1.749 2.889a10.308 10.308 0 0 1-2.965 3.041 3.234 3.234 0 0 1-3.422-.608 5.8 5.8 0 0 1-1.673-4.638 5.112 5.112 0 0 1 2.433-3.041 5.2 5.2 0 0 1 2.661-.836 3.6 3.6 0 0 1 2.662 1.747 3.966 3.966 0 0 1 .684 1.6 3.828 3.828 0 0 1-.38 2.736z" class="cls-1" data-name="Path 30" transform="translate(-2.93 -22.657)"/>
    </g>
</svg>
