<?xml version="1.0" encoding="utf-8"?>
<!-- Generator: Adobe Illustrator 19.2.1, SVG Export Plug-In . SVG Version: 6.00 Build 0)  -->
<svg version="1.1" id="Layer_1" xmlns="http://www.w3.org/2000/svg" xmlns:xlink="http://www.w3.org/1999/xlink" x="0px" y="0px"
	 viewBox="0 0 1477.514 492.403" enable-background="new 0 0 1477.514 492.403" xml:space="preserve">
<polygon fill="#23418D" points="107.163,376.336 105.892,376.336 57.557,276.168 0,276.168 79.498,425.942 79.498,492.403 
	133.557,492.403 133.557,425.942 213.055,276.168 155.498,276.168 "/>
<polygon fill="#23418D" points="278.656,276.168 227.777,276.168 227.777,492.403 367.694,492.403 367.694,446.612 278.656,446.612 
	"/>
<rect x="392.956" y="276.168" fill="#23418D" width="50.879" height="216.235"/>
<path fill="#23418D" d="M514.887,276.168L475.455,315.6v137.373l39.432,39.431h86.494l39.431-39.431V315.6l-39.431-39.432H514.887z
	 M589.933,437.072l-9.54,9.54h-44.837l-9.222-9.54V331.499l9.54-9.54h44.519l9.54,9.54V437.072z"/>
<path fill="#23418D" d="M672.432,276.168v216.235h50.879v-62.645h75.047l39.431-39.432V315.6l-39.431-39.432H672.432z
	 M786.909,374.428l-9.222,9.54h-54.377v-62.009h54.059l9.54,9.54V374.428z"/>
<rect x="866.229" y="276.168" fill="#23418D" width="50.879" height="216.235"/>
<polygon fill="#23418D" points="999.288,351.851 999.288,331.499 1008.828,321.959 1102.954,321.959 1102.954,276.168 
	987.841,276.168 948.409,315.6 948.409,366.16 970.987,393.189 1056.527,416.721 1056.527,437.072 1046.987,446.612 
	943.958,446.612 943.958,492.403 1067.975,492.403 1107.406,452.973 1107.406,402.411 1084.828,375.382 "/>
<polygon fill="#23418D" points="1121.539,321.959 1181.958,321.959 1181.958,492.403 1232.837,492.403 1232.837,321.959 
	1293.256,321.959 1293.256,276.168 1121.539,276.168 "/>
<path fill="#23418D" d="M1438.082,276.168h-86.494l-39.431,39.432v137.373l39.431,39.431h86.494l39.432-39.431V315.6
	L1438.082,276.168z M1426.635,437.072l-9.54,9.54h-44.837l-9.222-9.54V331.499l9.54-9.54h44.519l9.54,9.54V437.072z"/>
<polygon fill="#23418D" points="1203.155,216.235 1203.155,0 1152.276,0 1155.456,136.419 1074.05,0 1018.719,0 1018.719,216.235 
	1069.598,216.235 1066.418,79.816 1147.824,216.235 "/>
<path fill="#23418D" d="M400.42,216.484l39.485-39.475V39.475L400.42,0h-86.587l-39.475,39.475v137.535l39.475,39.475H400.42z
	 M325.295,55.393l9.545-9.545h44.574l9.545,9.545v105.698l-9.545,9.545h-44.884l-9.234-9.545V55.393z"/>
<polygon fill="#23418D" points="802.965,170.636 713.829,170.636 713.829,0 662.892,0 662.892,216.484 802.965,216.484 "/>
<polygon fill="#23418D" points="592.291,216.484 631.777,177.009 631.777,0 580.829,0 580.829,159.503 571.285,169.048 
	526.723,169.048 517.179,159.503 517.179,0 466.231,0 466.231,177.009 505.717,216.484 "/>
<polygon fill="#23418D" points="986.918,177.009 986.918,0 935.971,0 935.971,159.503 926.426,169.048 881.864,169.048 
	872.32,159.503 872.32,0 821.373,0 821.373,177.009 860.859,216.484 947.432,216.484 "/>
</svg>
