<?xml version="1.0" encoding="utf-8"?>
<!-- Generator: Adobe Illustrator 27.1.1, SVG Export Plug-In . SVG Version: 6.00 Build 0)  -->
<svg version="1.1" id="Layer_1" xmlns="http://www.w3.org/2000/svg" xmlns:xlink="http://www.w3.org/1999/xlink" x="0px" y="0px"
	 viewBox="0 0 480 480" style="enable-background:new 0 0 480 480;" xml:space="preserve">
<g>
	<path d="M143.17,209.89c-12.4,0-21.87-2.99-28.42-8.97c-8.79-7.34-13.18-17.91-13.18-31.71c0-14.08,4.39-24.65,13.18-31.71
		c6.55-5.98,16.02-8.97,28.42-8.97c12.4,0,21.87,2.99,28.42,8.97c8.75,7.06,13.12,17.63,13.12,31.71c0,13.8-4.37,24.38-13.12,31.71
		C165.04,206.9,155.57,209.89,143.17,209.89z M160.3,189.23c4.2-4.69,6.3-11.37,6.3-20.03c0-8.62-2.11-15.29-6.33-20
		c-4.22-4.71-9.91-7.07-17.09-7.07s-12.91,2.35-17.18,7.04c-4.28,4.69-6.41,11.37-6.41,20.03s2.14,15.33,6.41,20.03
		c4.28,4.69,10,7.04,17.18,7.04S156.06,193.93,160.3,189.23z"/>
	<path d="M223.74,199.72c-0.16,0.17-0.55,0.7-1.18,1.56c-0.63,0.87-1.37,1.63-2.24,2.29c-2.63,2.09-5.17,3.51-7.62,4.28
		c-2.45,0.76-5.33,1.15-8.62,1.15c-9.49,0-15.89-3.03-19.18-9.08c-1.84-3.34-2.77-8.26-2.77-14.76V150.9h17.18v34.27
		c0,3.23,0.43,5.67,1.29,7.3c1.53,2.89,4.53,4.33,9,4.33c5.73,0,9.65-2.05,11.77-6.15c1.1-2.22,1.65-5.16,1.65-8.81V150.9h17v56.85
		h-16.3V199.72z"/>
	<path d="M241.99,130.87h16.77v76.88h-16.77V130.87z"/>
	<path d="M301.67,199.72c-0.16,0.17-0.55,0.7-1.18,1.56c-0.63,0.87-1.37,1.63-2.24,2.29c-2.63,2.09-5.17,3.51-7.62,4.28
		c-2.45,0.76-5.33,1.15-8.62,1.15c-9.49,0-15.89-3.03-19.18-9.08c-1.84-3.34-2.77-8.26-2.77-14.76V150.9h17.18v34.27
		c0,3.23,0.43,5.67,1.29,7.3c1.53,2.89,4.53,4.33,9,4.33c5.73,0,9.65-2.05,11.77-6.15c1.1-2.22,1.65-5.16,1.65-8.81V150.9h17v56.85
		h-16.3V199.72z"/>
	<path d="M307.72,287.75v-34.32h-33.89v34.32h-17.95v-76.88h17.95v29.31h33.89v-29.31h18.01v76.88H307.72z"/>
	<path d="M365.28,260.1h-18.42v27.64h-18.01v-76.88h37.78c8.71,0,15.65,1.98,20.83,5.95c5.18,3.96,7.77,10.1,7.77,18.41
		c0,9.07-2.59,15.49-7.77,19.25C382.29,258.23,374.89,260.1,365.28,260.1z M373.75,244.09c2.35-1.84,3.53-4.76,3.53-8.76
		c0-4-1.19-6.85-3.56-8.55c-2.37-1.7-5.7-2.56-9.97-2.56h-16.89v22.64h16.89C368.03,246.86,371.36,245.94,373.75,244.09z"/>
	<path d="M350.99,360.75h-39.31v-76.88h42.13c10.63,0.14,18.16,2.87,22.59,8.19c2.67,3.27,4,7.18,4,11.74c0,4.69-1.33,8.47-4,11.32
		c-1.49,1.6-3.69,3.06-6.59,4.38c4.43,1.43,7.78,3.69,10.03,6.78c2.26,3.1,3.38,6.85,3.38,11.27c0,4.56-1.29,8.64-3.88,12.26
		c-1.65,2.4-3.71,4.42-6.18,6.05c-2.79,1.88-6.07,3.16-9.86,3.86C359.53,360.4,355.42,360.75,350.99,360.75z M359.58,312.24
		c2.35-1.25,3.53-3.49,3.53-6.73c0-3.58-1.57-5.95-4.71-7.09c-2.71-0.8-6.16-1.2-10.36-1.2h-19.06v16.95h21.3
		C354.09,314.17,357.19,313.53,359.58,312.24z M350.58,326.9h-21.59v20.5h21.3c3.8,0,6.77-0.45,8.88-1.36
		c3.84-1.67,5.77-4.87,5.77-9.6c0-4-1.86-6.75-5.59-8.24C357.27,327.37,354.34,326.93,350.58,326.9z"/>
</g>
<path d="M214.74,240.24c10.23,9.48-45.75,68.27-28.25,92.56c17.5,24.29,96.11-3.15,95.42-7.19c-0.97-5.7-159.7,34.86-172.55,2.61
	C98.18,300.15,202.14,228.57,214.74,240.24z"/>
<path d="M228.97,312.8"/>
<g>
</g>
<g>
</g>
<g>
</g>
<g>
</g>
<g>
</g>
</svg>
